<svg width="209" height="264" viewBox="0 0 209 264" fill="none" xmlns="http://www.w3.org/2000/svg">
<g clip-path="url(#clip0_239_5076)">
<path d="M49.8701 55.1278C49.9178 52.8841 49.4466 50.2842 49.0961 49.5185L48.7483 48.7276C48.7483 48.7276 53.7433 48.2087 54.0575 48.2087H54.3576C54.3576 48.2087 54.1837 54.0031 54.3576 55.1278L54.5286 56.2496C54.5286 56.2496 51.2444 56.1627 50.3778 56.2496L49.514 56.3366C49.689 55.9524 49.8089 55.5455 49.8701 55.1278Z" fill="#818CF8"/>
<path d="M171.636 63.6734L176.222 60.6641C176.222 60.6641 177.425 63.2107 178.906 63.9988C179.788 64.4737 180.72 64.85 181.685 65.1206L178.165 68.3151C178.165 68.3151 172.376 65.202 171.636 63.6734Z" fill="#FB923C"/>
<path d="M207.771 123.306C207.771 123.306 206.89 126.315 204.899 127.566C202.908 128.817 202.678 128.817 202.678 128.817L207.586 131.686C207.586 131.686 210.04 129.927 210.873 127.844C211.388 126.542 211.776 125.193 212.031 123.816L207.771 123.306Z" fill="#22C55E"/>
<path d="M58.7215 241.692C58.6261 241.625 63.0939 239.448 63.0939 239.448C63.0939 239.448 63.5623 240.009 63.8119 240.306C63.9515 240.479 64.1095 240.636 64.2831 240.775L59.2207 243.515C59.2207 243.515 59.2768 242.079 58.7215 241.692Z" fill="#22C55E"/>
<path d="M153.824 217.71C154.8 218.217 156.328 218.094 157.315 217.912C157.82 217.853 158.3 217.659 158.704 217.351C158.107 218.786 158.009 220.379 158.423 221.877C159.124 224.401 160.297 225.01 160.297 225.01C160.297 225.01 156.651 223.65 155.167 221.717C154.284 220.569 153.811 219.158 153.824 217.71V217.71Z" fill="#FB923C"/>
<path d="M179.988 127.496C181.149 127.961 184.863 129.588 184.863 129.588L180.846 135.13L176.667 133.069L179.988 127.496Z" fill="url(#paint0_linear_239_5076)"/>
<path d="M166.408 141.519L167.042 137.741L172.528 139.2C172.528 139.2 171.367 140.781 171.367 142.153V143.524L166.408 142.683V141.519Z" fill="#FB923C"/>
<path d="M183.931 74.6144L190.469 70.5981L191.476 73.9581L181.609 79.0289L183.931 74.6144Z" fill="url(#paint1_linear_239_5076)"/>
<path d="M177.621 25.8728L180.605 26.1168L179.472 31.3531L176.701 30.6238L177.621 25.8728Z" fill="#FB923C"/>
<path d="M138.595 22.1902H141.865L141.321 23.5532H137.26L138.595 22.1902Z" fill="#22C55E"/>
<path d="M6.25806 154.984L9.95176 153.296L12.0805 156.235L9.16927 158.776L6.25806 154.984Z" fill="#22C55E"/>
<path d="M108.436 60.5603C108.958 61.7747 110.097 63.048 111.58 63.2724C113.064 63.4968 113.451 63.2724 113.451 63.2724L111.056 66.4164C111.056 66.4164 107.382 66.0434 106.263 64.6186L105.141 63.1967L108.436 60.5603Z" fill="url(#paint2_linear_239_5076)"/>
<path d="M49.8336 65.1321L45.4472 64.5571C45.4472 64.5571 44.4544 69.7401 45.5257 71.6444L46.5999 73.5488L51.1069 73.0047C51.1069 73.0047 49.1185 71.6024 49.183 69.5971C49.274 68.0931 49.4916 66.5995 49.8336 65.1321V65.1321Z" fill="#CF460D"/>
<path d="M0.267425 128.298L-4.29571 126.158C-4.29571 126.158 -4.16109 129.209 -5.10064 130.483C-5.75432 131.303 -6.59875 131.951 -7.5603 132.37L-3.93672 134.732C-3.93672 134.732 0.132803 131.983 0.267425 128.298Z" fill="#22C55E"/>
<path d="M154.519 114.892L150.012 111.882C150.012 111.882 148.829 114.429 147.373 115.217C146.506 115.69 145.59 116.066 144.641 116.339L148.099 119.533C148.099 119.533 153.79 116.406 154.519 114.892Z" fill="#FB923C"/>
<path d="M39.2124 121.971C39.2124 121.971 35.3812 122.888 34.9802 122.591C34.5791 122.293 35.8608 126.438 35.6196 127.821L35.3812 129.201C35.3812 129.201 38.7468 128.469 39.2124 127.74C39.6779 127.011 39.2124 121.971 39.2124 121.971Z" fill="url(#paint3_linear_239_5076)"/>
<path d="M161.211 24.6078L160.381 21.4358L157.167 21.9631L159.189 26.4982L161.211 24.6078Z" fill="url(#paint4_linear_239_5076)"/>
<path d="M12.6554 199.611L13.6903 193.915H8.61108L9.33748 199.171L12.6554 199.611Z" fill="url(#paint5_linear_239_5076)"/>
<path d="M109.196 198.013L106.263 198.257L107.376 203.493L110.099 202.764L109.196 198.013Z" fill="#CF460D"/>
<path d="M87.3735 208.39L84.9279 207.966C85.0762 208.484 85.0762 209.033 84.9279 209.551C84.8004 209.96 84.5604 210.326 84.2351 210.605L87.3651 211.141L87.3735 208.39Z" fill="url(#paint6_linear_239_5076)"/>
<path d="M211.083 211.009H207.869L208.405 212.372H212.396L211.083 211.009Z" fill="#CF460D"/>
<path d="M96.2532 15.4957C94.8222 16.03 93.573 16.961 92.652 18.1797L92.481 18.2582C92.481 18.2582 92.652 18.1797 92.9297 18.0788C93.7711 17.773 95.5913 17.2766 96.5561 18.2582L97.8378 19.5652L101.613 16.7297C101.613 16.7297 98.5923 14.6515 96.2532 15.4957Z" fill="#CF460D"/>
<path d="M56.1806 223.243L54.3716 219.426L45.6436 222.27L48.6081 225.049L56.1806 223.243Z" fill="#CF460D"/>
<path d="M7.94081 79.9684L4.31161 78.28L2.21655 81.2193L5.08008 83.7603L7.94081 79.9684Z" fill="#CF460D"/>
<path d="M140.83 219.479H135.453L136.348 221.759H143.026L140.83 219.479Z" fill="#22C55E"/>
<path d="M28.583 236.492C27.152 237.026 25.9028 237.957 24.9819 239.176L24.8108 239.257C24.8108 239.257 24.9819 239.176 25.2595 239.075C26.1009 238.769 27.9211 238.276 28.8859 239.257L30.1676 240.562L33.9399 237.735C33.9399 237.735 30.9221 235.648 28.583 236.492Z" fill="#818CF8"/>
<path d="M67.7805 13.1004L66.639 10.2004L61.1448 12.36L63.0127 14.4691L67.7805 13.1004Z" fill="url(#paint7_linear_239_5076)"/>
<path d="M172.152 235.892L174.208 234.246L177.585 235.107L175.91 237.036L172.152 235.892Z" fill="#818CF8"/>
<path d="M201.068 186.69L205.791 184.514C205.791 184.514 205.653 187.619 206.632 188.914C207.313 189.752 208.187 190.411 209.179 190.836L205.429 193.239C205.429 193.239 201.205 190.454 201.068 186.69Z" fill="url(#paint8_linear_239_5076)"/>
<path d="M170.469 199.645C170.273 199.645 174.528 192.496 174.528 192.496C174.528 192.496 175.694 192.838 176.323 193.034C176.677 193.15 177.043 193.227 177.414 193.262L172.842 201.743C172.842 201.743 171.605 199.679 170.469 199.645Z" fill="#FB923C"/>
<path d="M194.968 180.043L193.913 174.35H199.082L198.342 179.606L194.968 180.043Z" fill="#CF460D"/>
<path d="M0.71056 41.2224C0.547891 41.831 0.00379259 42.4004 -0.380442 42.7257C-0.554335 42.8994 -0.779535 43.0125 -1.02271 43.0482C-0.320451 43.4504 0.222934 44.0809 0.517039 44.8348C1.09479 46.1754 0.901273 46.9046 0.901273 46.9046C0.901273 46.9046 1.67255 44.8572 1.54354 43.4465C1.48524 42.6405 1.19606 41.8684 0.71056 41.2224Z" fill="#FB923C"/>
<path d="M40.267 26.1083L39.8772 24.26L38.3711 24.5685L39.3191 27.2133L40.267 26.1083Z" fill="#CF460D"/>
<path d="M79.8795 228.76C79.8795 228.76 79.5486 229.882 78.8026 230.356C78.5433 230.547 78.2606 230.705 77.9612 230.824L79.801 231.901C79.801 231.901 80.7209 231.242 81.0322 230.459C81.226 229.972 81.3716 229.466 81.467 228.95L79.8795 228.76Z" fill="#FB923C"/>
<path d="M26.8804 214.667H30.1506L29.6065 216.03H25.5454L26.8804 214.667Z" fill="#22C55E"/>
<path d="M135.504 236.949L134.326 232.445L129.763 233.194L132.635 239.636L135.504 236.949Z" fill="url(#paint9_linear_239_5076)"/>
<path d="M159.189 155.803C159.189 155.803 160.056 155.898 160.378 155.64C160.565 155.494 160.71 155.3 160.796 155.079L161.727 157.365C161.496 157.612 161.224 157.819 160.925 157.977C160.816 158.034 160.695 158.064 160.572 158.064C160.448 158.064 160.327 158.034 160.218 157.977L159.189 155.803Z" fill="#22C55E"/>
<path d="M88.717 254.282C88.3252 254.673 87.8894 255.017 87.4185 255.308L86.8828 255.589C86.8828 255.589 87.9346 255.796 88.1589 256.593C88.2765 257.163 88.2318 257.755 88.0299 258.301C88.0299 258.301 89.4126 257.3 89.7127 256.638C90.0128 255.976 88.717 254.282 88.717 254.282Z" fill="#818CF8"/>
<path d="M14.9355 173.324L16.652 172.202C16.652 172.202 17.1035 173.155 17.6588 173.45C17.9906 173.626 18.3404 173.766 18.7022 173.868L17.3812 175.065C17.3812 175.065 15.2132 173.896 14.9355 173.324Z" fill="#FB923C"/>
<path d="M16.3773 43.3147L17.5272 39.694C17.5272 39.694 15.261 40.095 14.2149 39.5173C13.5377 39.1085 12.9706 38.5405 12.563 37.8625L11.1606 40.8046C11.1606 40.8046 13.6063 43.5784 16.3773 43.3147Z" fill="#22C55E"/>
<path d="M5.07734 62.3862C5.07734 62.3862 4.66787 60.7399 5.09137 60.0556C5.32646 59.6583 5.66342 59.331 6.06738 59.1076L1.34999 57.9016C0.926507 58.4108 0.590956 58.9872 0.357151 59.6068C0.270418 59.8304 0.241396 60.0722 0.272767 60.3099C0.304138 60.5477 0.394892 60.7737 0.536647 60.9671L5.07734 62.3862Z" fill="#818CF8"/>
<path d="M25.8735 49.4119C26.3843 49.3107 26.8673 49.1008 27.2898 48.7964C27.7123 48.492 28.0643 48.1003 28.322 47.6478L29.1493 46.1277L30.9387 48.0096C30.9387 48.0096 30.6807 49.6559 29.4971 50.5702C28.8096 51.108 28.0193 51.4993 27.1749 51.7201L25.8735 49.4119Z" fill="#FB923C"/>
<path d="M27.9632 61.3878C27.9632 61.3878 26.9199 58.6589 27.0994 58.3363C27.2789 58.0138 24.348 59.36 23.3187 59.3096L22.281 59.2675C22.281 59.2675 23.142 61.6626 23.7254 61.9431C24.3088 62.2236 27.9632 61.3878 27.9632 61.3878Z" fill="url(#paint10_linear_239_5076)"/>
<path d="M26.3728 188.564C26.3728 188.564 28.4062 190.569 29.8394 191.298L31.2725 192.028C31.2725 192.028 28.4679 192.588 27.8677 194.706C27.2675 196.823 28.2071 199.266 28.2071 199.266C28.2071 199.266 24.5218 196.591 23.7449 194.824C22.968 193.057 26.3728 188.564 26.3728 188.564Z" fill="#FB923C"/>
<path d="M84.928 191.739C84.9758 190.997 85.1826 190.275 85.5344 189.621C85.8863 188.966 86.3749 188.395 86.967 187.947L88.9639 186.494L85.9685 184.312C85.9685 184.312 83.6884 184.985 82.617 186.836C81.9841 187.908 81.5766 189.098 81.4194 190.334L84.928 191.739Z" fill="#818CF8"/>
<path d="M208.469 60.1426C211.274 59.5032 212.065 57.8989 212.065 57.8989L215.015 59.0208C215.015 59.0208 213.145 61.5029 211.742 61.9993L210.34 62.4929L208.469 60.1426Z" fill="#FB923C"/>
<path d="M153.992 50.6264C154.034 50.6264 150.907 48.1331 150.907 48.1331L145.166 52.2082L147.129 55.3073C147.129 55.3073 153.137 50.8087 153.992 50.6264Z" fill="#22C55E"/>
<path d="M119.394 35.6776L114.752 33.5012C114.752 33.5012 114.887 36.6059 113.931 37.9017C113.266 38.7369 112.407 39.3966 111.429 39.8229L115.114 42.2236C115.114 42.2236 119.257 39.4274 119.394 35.6776Z" fill="#FB923C"/>
<path d="M173.08 81.8755C173.08 81.8755 173.944 84.8849 175.902 86.1357C177.859 87.3866 178.087 87.3866 178.087 87.3866L173.274 90.2557C173.274 90.2557 170.862 88.4972 170.04 86.4134C169.539 85.1085 169.164 83.759 168.918 82.3831L173.08 81.8755Z" fill="#FB923C"/>
<path d="M194.261 115.733C194.421 115.621 187.07 111.983 187.07 111.983C187.07 111.983 186.296 112.909 185.886 113.419C185.658 113.709 185.398 113.972 185.112 114.205L193.442 118.79C193.442 118.79 193.352 116.375 194.261 115.733Z" fill="#818CF8"/>
<path d="M162.594 80.6471L157.904 79.0737L151.532 83.1937L157.268 86.0657L162.594 80.6471Z" fill="#22C55E"/>
<path d="M140.99 90.3119C140.99 90.3119 138.715 90.57 137.874 89.8828C137.383 89.4988 137.005 88.9904 136.777 88.4104L134.334 94.5133C134.941 95.1695 135.653 95.7202 136.441 96.1428C136.725 96.2979 137.044 96.3792 137.368 96.3792C137.692 96.3792 138.01 96.2979 138.295 96.1428L140.99 90.3119Z" fill="#22C55E"/>
<path d="M119.369 18.4658C119.369 18.4658 119.315 15.4872 116.772 13.6334L114.225 11.7823L118.042 9.00293C118.042 9.00293 120.951 9.84432 122.314 12.2086C123.122 13.5739 123.642 15.0908 123.839 16.6652L119.369 18.4658Z" fill="#818CF8"/>
<path d="M161.693 106.82L159.38 102.352C159.38 102.352 157.027 103.424 155.854 105.536C154.682 107.647 155.807 110.999 155.807 110.999H158.432C158.432 110.999 157.904 108.853 159.077 108.018C159.877 107.477 160.761 107.073 161.693 106.82Z" fill="url(#paint11_linear_239_5076)"/>
<path d="M137.554 66.8008C137.554 66.8008 133.72 67.7179 133.322 67.4206C132.923 67.1233 134.2 71.2686 133.961 72.6484L133.72 74.0311C133.72 74.0311 137.086 73.2991 137.554 72.5671C138.022 71.8351 137.554 66.8008 137.554 66.8008Z" fill="url(#paint12_linear_239_5076)"/>
<path d="M128.487 76.6337C128.529 76.6337 125.402 74.1404 125.402 74.1404L119.663 78.2127L121.627 81.3146C121.627 81.3146 127.631 76.816 128.487 76.6337Z" fill="#FB923C"/>
<path d="M113.286 163.252L110.972 158.784C110.972 158.784 108.621 159.856 107.446 161.967C106.271 164.079 107.399 167.428 107.399 167.428H110.027C110.027 167.428 109.497 165.28 110.669 164.444C111.47 163.906 112.354 163.503 113.286 163.252V163.252Z" fill="#FB923C"/>
<path d="M131.131 251.615L130.063 250.751L128.077 252.153L128.759 253.227C128.759 253.227 130.837 251.677 131.131 251.615Z" fill="#22C55E"/>
<path d="M18.1973 229.955L16.5902 229.2C16.5902 229.2 16.6379 230.277 16.3097 230.726C16.0795 231.015 15.782 231.243 15.4431 231.391L16.7192 232.232C16.7192 232.232 18.1496 231.253 18.1973 229.955Z" fill="#FB923C"/>
<path d="M125.735 261.097C125.735 261.097 126.035 262.138 126.714 262.572C126.946 262.748 127.2 262.893 127.469 263.004L125.8 264C125.8 264 124.958 263.389 124.678 262.668C124.503 262.214 124.37 261.744 124.282 261.265L125.735 261.097Z" fill="#FB923C"/>
<path d="M5.08296 184.233L3.45908 183.689L1.25464 185.114L3.23751 186.11L5.08296 184.233Z" fill="#22C55E"/>
<path d="M194.752 141.398C194.752 141.398 193.728 141.522 193.349 141.191C193.127 141 192.957 140.756 192.856 140.481L191.756 143.423C192.027 143.735 192.347 143.999 192.704 144.206C192.831 144.283 192.977 144.323 193.125 144.323C193.273 144.323 193.419 144.283 193.546 144.206L194.752 141.398Z" fill="#818CF8"/>
<path d="M96.0259 227.015L100.749 224.833C100.749 224.833 100.611 227.938 101.59 229.234C102.272 230.071 103.147 230.731 104.14 231.155L100.387 233.558C100.387 233.558 96.1661 230.768 96.0259 227.015Z" fill="#818CF8"/>
<path d="M77.95 72.4464L80.5106 67.4934C80.5106 67.4934 83.1105 68.6798 84.409 71.016C85.7076 73.3523 84.4623 77.06 84.4623 77.06H81.5567C81.5567 77.06 82.1429 74.6845 80.8443 73.7618C79.9589 73.1663 78.9808 72.7218 77.95 72.4464V72.4464Z" fill="url(#paint13_linear_239_5076)"/>
<path d="M117.787 152.505C117.787 152.505 120.311 152.785 121.234 152.031C121.777 151.606 122.195 151.043 122.446 150.401L125.149 157.152C124.478 157.878 123.69 158.488 122.819 158.955C121.607 159.516 120.768 158.955 120.768 158.955L117.787 152.505Z" fill="#818CF8"/>
<path d="M183.045 100.465C183.045 100.465 182.165 103.474 180.173 104.725C178.182 105.976 177.949 105.976 177.949 105.976L182.86 108.848C182.86 108.848 185.314 107.086 186.147 105.002C186.658 103.7 187.043 102.351 187.297 100.975L183.045 100.465Z" fill="#FB923C"/>
<path d="M25.4699 100.341L23.1561 95.8735C23.1561 95.8735 20.803 96.9449 19.6306 99.0568C18.4583 101.169 19.5802 104.515 19.5802 104.515H22.2053C22.2053 104.515 21.678 102.369 22.8504 101.533C23.652 100.994 24.5371 100.592 25.4699 100.341Z" fill="url(#paint14_linear_239_5076)"/>
<path d="M198.998 88.0514C199.037 88.0514 195.913 85.5581 195.913 85.5581L190.175 89.6332L192.138 92.7352C192.138 92.7352 198.143 88.2477 198.998 88.0514Z" fill="#818CF8"/>
<path d="M202.139 102.599L197.453 101.023L191.081 105.146L196.813 108.015L202.139 102.599Z" fill="#22C55E"/>
<path d="M197.912 123.883C197.912 123.883 195.638 124.141 194.797 123.454C194.306 123.07 193.927 122.562 193.7 121.982L191.257 128.074C191.864 128.73 192.576 129.28 193.363 129.703C193.648 129.858 193.966 129.94 194.29 129.94C194.614 129.94 194.933 129.858 195.217 129.703L197.912 123.883Z" fill="#818CF8"/>
<path d="M131.384 195.427C131.338 194.726 131.142 194.043 130.809 193.425C130.476 192.806 130.014 192.267 129.454 191.842L127.558 190.465L130.391 188.404C130.391 188.404 132.551 189.038 133.563 190.782C134.159 191.797 134.54 192.924 134.685 194.092L131.384 195.427Z" fill="url(#paint15_linear_239_5076)"/>
<path d="M76.9993 115.091L77.6696 111.094L83.4667 112.637C83.4667 112.637 82.2411 114.32 82.2411 115.758V117.208L76.9993 116.322V115.091Z" fill="#FB923C"/>
<path d="M147.984 111.411L150.464 110.988C150.314 111.505 150.314 112.055 150.464 112.572C150.595 112.983 150.839 113.348 151.168 113.627L147.984 114.163V111.411Z" fill="#22C55E"/>
<path d="M130.857 80.8574C130.837 80.8574 133.126 80.1619 133.126 80.1619L135.4 83.6957L133.616 84.9774C133.616 84.9774 131.291 81.1491 130.857 80.8574Z" fill="url(#paint16_linear_239_5076)"/>
<path d="M81.4474 148.059L72.9858 151.425C72.9858 151.425 74.5228 152.21 74.6013 153.618L74.677 155.02L82.1402 151.537C82.1402 151.537 81.0632 149.153 81.4474 148.059Z" fill="url(#paint17_linear_239_5076)"/>
<path d="M94.6993 72.1379C94.6993 72.1379 93.8186 75.1473 91.8273 76.3982C89.8361 77.649 89.6033 77.649 89.6033 77.649L94.5142 80.521C94.5142 80.521 96.9682 78.7597 97.8012 76.6758C98.3119 75.373 98.697 74.0244 98.9511 72.6484L94.6993 72.1379Z" fill="#818CF8"/>
<path d="M156.446 64.6524C156.446 64.6524 156.314 68.764 158.258 71.1031C160.202 73.4422 160.502 73.5459 160.502 73.5459L153.313 75.1922C153.313 75.1922 151.005 72.023 150.82 69.0866C150.713 67.2529 150.78 65.4134 151.019 63.5923L156.446 64.6524Z" fill="#FB923C"/>
<path d="M113.793 74.2723L109.107 72.696L102.735 76.8189L108.467 79.688L113.793 74.2723Z" fill="#22C55E"/>
<path d="M24.8725 166.733L25.9551 161.799C25.9551 161.799 23.4309 161.073 21.162 161.917C18.893 162.761 17.6001 166.057 17.6001 166.057L19.6447 167.779C19.6447 167.779 20.6179 165.79 22.0707 165.925C23.0424 166.04 23.9888 166.312 24.8725 166.733V166.733Z" fill="#FB923C"/>
<path d="M16.1051 138.19L13.6258 137.769C13.7757 138.286 13.7757 138.834 13.6258 139.351C13.4946 139.762 13.2507 140.127 12.9219 140.406L16.1051 140.941V138.19Z" fill="#22C55E"/>
<path d="M17.6869 115.84C17.6869 115.84 16.8231 118.849 14.8655 120.1C12.9078 121.351 12.6807 121.342 12.6807 121.342L17.5046 124.214C17.5046 124.214 19.9166 122.453 20.7356 120.369C21.2408 119.065 21.622 117.717 21.8742 116.342L17.6869 115.84Z" fill="#FB923C"/>
<path d="M86.3135 241.942L87.5335 239.625C88.2955 239.991 88.9397 240.563 89.393 241.277C90.01 242.371 89.4182 244.107 89.4182 244.107H88.0327C88.0327 244.107 88.3132 242.985 87.6934 242.561C87.2699 242.282 86.8039 242.072 86.3135 241.942V241.942Z" fill="#FB923C"/>
<path d="M13.6538 206.323C13.6538 206.323 15.6759 206.8 15.8975 206.645C16.119 206.491 15.4347 208.639 15.5609 209.355L15.6871 210.07C15.6871 210.07 13.9174 209.691 13.665 209.312C13.4126 208.934 13.6538 206.323 13.6538 206.323Z" fill="#818CF8"/>
<path d="M45.1359 212.86C45.7389 213.099 47.66 213.943 47.66 213.943L45.5734 216.815L43.4194 215.746L45.1359 212.86Z" fill="#3B82F6"/>
<path d="M107.432 241.1L101.422 243.451C101.422 243.451 102.516 243.995 102.569 244.979L102.625 245.963L107.926 243.532C107.926 243.532 107.16 241.849 107.432 241.1Z" fill="#FACC15"/>
<path d="M38.0906 220.124L38.4187 218.161L41.2598 218.916C41.2598 218.916 40.6596 219.737 40.6596 220.447V221.156L38.0906 220.727V220.124Z" fill="#FB923C"/>
<path d="M74.3264 219.202L75.6109 218.983C75.5329 219.25 75.5329 219.534 75.6109 219.802C75.676 220.02 75.8026 220.215 75.9755 220.363L74.3264 220.643V219.202Z" fill="#22C55E"/>
<path d="M42.1937 227.004C42.6758 227.476 43.2103 227.891 43.7868 228.241L44.4459 228.569C44.4459 228.569 43.1557 228.816 42.8809 229.778C42.606 230.74 43.0379 231.837 43.0379 231.837C43.0379 231.837 41.3552 230.628 40.9849 229.831C40.6147 229.035 42.1937 227.004 42.1937 227.004Z" fill="#22C55E"/>
<path d="M69.3005 249.396L71.7462 248.274C71.7462 248.274 71.6733 249.884 72.1781 250.555C72.5308 250.989 72.9842 251.331 73.4991 251.55L71.5555 252.795C71.5555 252.795 69.3707 251.34 69.3005 249.396Z" fill="url(#paint18_linear_239_5076)"/>
<path d="M46.9981 253.491L46.4512 250.541H49.1296L48.7482 253.264L46.9981 253.491Z" fill="#CF460D"/>
<path d="M4.11523 222.87C4.11523 222.87 8.04172 224.589 11.4858 223.131C14.9299 221.672 15.0533 220.907 15.0533 220.907C15.0533 220.907 14.6606 220.18 14.125 219.333C13.7709 218.736 13.4983 218.093 13.3144 217.423C11.9634 218.322 10.4315 218.913 8.82702 219.154C6.30285 219.482 5.05479 219.061 5.05479 219.061L4.11523 222.87Z" fill="#CF460D"/>
<path d="M45.3126 236.498L38.6909 239.137C38.6909 239.137 39.8941 239.748 39.953 240.851L40.0147 241.953L45.8539 239.23C45.8539 239.23 45.0097 237.353 45.3126 236.498Z" fill="#EC4899"/>
<path d="M58.4271 210.101C58.5084 210.042 54.7025 208.157 54.7025 208.157C54.7025 208.157 54.3015 208.637 54.0883 208.9C53.9693 209.05 53.8349 209.188 53.6873 209.31L58.0036 211.682C58.0036 211.682 57.9559 210.437 58.4271 210.101Z" fill="#FB923C"/>
<path d="M208.949 104.983C208.949 104.983 208.494 106.542 207.462 107.19C206.43 107.838 206.31 107.838 206.31 107.838L208.853 109.324C208.853 109.324 210.127 108.413 210.556 107.333C210.822 106.658 211.023 105.96 211.156 105.247L208.949 104.983Z" fill="#FB923C"/>
<path d="M191.897 199.676C191.897 199.676 190.719 199.81 190.281 199.454C190.03 199.255 189.836 198.991 189.72 198.691L188.453 201.852C188.767 202.191 189.136 202.475 189.544 202.694C189.691 202.774 189.857 202.817 190.025 202.817C190.193 202.817 190.358 202.774 190.506 202.694L191.897 199.676Z" fill="#818CF8"/>
<path d="M150.604 163.322L151.824 161.005C152.587 161.37 153.232 161.943 153.684 162.657C154.301 163.751 153.709 165.484 153.709 165.484H152.323C152.323 165.484 152.604 164.363 151.984 163.939C151.561 163.659 151.095 163.45 150.604 163.322V163.322Z" fill="#FB923C"/>
<path d="M62.2722 153.383C62.2722 153.383 64.4094 153.887 64.6309 153.725C64.8525 153.562 64.1401 155.831 64.2747 156.588L64.4094 157.343C64.4094 157.343 62.5387 156.944 62.2722 156.543C62.0058 156.142 62.2722 153.383 62.2722 153.383Z" fill="#818CF8"/>
<path d="M170.206 165.86L164.195 168.211C164.195 168.211 165.286 168.758 165.342 169.742L165.396 170.726L170.696 168.295C170.696 168.295 169.934 166.626 170.206 165.86Z" fill="#EC4899"/>
<path d="M78.1379 123.925L78.4661 121.962L81.3072 122.717C81.3072 122.717 80.707 123.536 80.707 124.248V124.958L78.1379 124.523V123.925Z" fill="url(#paint19_linear_239_5076)"/>
<path d="M138.617 140.571L139.901 140.352C139.823 140.62 139.823 140.904 139.901 141.171C139.969 141.384 140.095 141.574 140.266 141.718L138.617 141.998V140.571Z" fill="#22C55E"/>
<path d="M205.973 226.609C205.973 226.609 207.992 228.572 209.417 229.281L210.856 229.994C210.856 229.994 208.051 230.53 207.471 232.608C206.89 234.686 207.81 237.064 207.81 237.064C207.81 237.064 204.145 234.45 203.373 232.728C202.602 231.006 205.973 226.609 205.973 226.609Z" fill="url(#paint20_linear_239_5076)"/>
<path d="M152.497 145.182C152.478 145.182 154.034 144.091 154.034 144.091L156.634 146.191L155.608 147.594C155.608 147.594 152.896 145.291 152.497 145.182Z" fill="#CF460D"/>
<path d="M202.47 141.045C202.47 141.045 202.919 142.604 203.931 143.252C204.944 143.9 205.053 143.9 205.053 143.9L202.554 145.386C202.554 145.386 201.303 144.475 200.871 143.395C200.61 142.72 200.413 142.021 200.282 141.309L202.47 141.045Z" fill="#FB923C"/>
<path d="M126.767 113.091C126.767 113.091 125.59 113.226 125.152 112.87C124.901 112.669 124.708 112.406 124.591 112.107L123.326 115.268C123.64 115.607 124.009 115.892 124.417 116.109C124.564 116.189 124.729 116.232 124.897 116.232C125.064 116.232 125.229 116.189 125.376 116.109L126.767 113.091Z" fill="#818CF8"/>
<path d="M159.012 239.159L160.232 236.846C160.993 237.211 161.637 237.782 162.089 238.495C162.709 239.589 162.114 241.325 162.114 241.325H160.729C160.729 241.325 161.009 240.203 160.389 239.779C159.967 239.499 159.502 239.29 159.012 239.159V239.159Z" fill="#22C55E"/>
<path d="M91.8946 214.602C91.8946 214.602 94.0317 215.104 94.2533 214.944C94.4748 214.784 93.7624 217.05 93.9027 217.822L94.0373 218.576C94.0373 218.576 92.1666 218.175 91.9002 217.777C91.6337 217.379 91.8946 214.602 91.8946 214.602Z" fill="#818CF8"/>
<path d="M117.832 210.067C118.435 210.305 120.356 211.149 120.356 211.149L118.272 214.021L116.107 212.953L117.832 210.067Z" fill="#3B82F6"/>
<path d="M178.603 241.7L172.59 244.051C172.59 244.051 173.683 244.595 173.737 245.579L173.793 246.564L179.094 244.132C179.094 244.132 178.339 242.463 178.603 241.7Z" fill="#EC4899"/>
<path d="M110.798 217.331L111.126 215.368L113.967 216.125C113.967 216.125 113.367 216.944 113.367 217.653V218.383L110.798 217.951V217.331Z" fill="#FB923C"/>
<path d="M157.683 207.602L158.967 207.383C158.889 207.65 158.889 207.934 158.967 208.202C159.034 208.415 159.16 208.605 159.332 208.749L157.683 209.029V207.602Z" fill="#22C55E"/>
<path d="M114.89 224.211C115.372 224.682 115.906 225.097 116.483 225.448L117.142 225.776C117.142 225.776 115.852 226.022 115.577 226.984C115.302 227.946 115.734 229.043 115.734 229.043C115.734 229.043 114.051 227.834 113.684 227.038C113.316 226.241 114.89 224.211 114.89 224.211Z" fill="#22C55E"/>
<path d="M141.997 246.606L144.442 245.484C144.442 245.484 144.372 247.091 144.874 247.761C145.227 248.196 145.68 248.538 146.195 248.757L144.252 250.002C144.252 250.002 142.07 248.547 141.997 246.606Z" fill="url(#paint21_linear_239_5076)"/>
<path d="M119.694 250.698L119.147 247.747H121.826L121.444 250.47L119.694 250.698Z" fill="#CF460D"/>
<path d="M82.7319 228.46C82.7319 228.46 85.4384 228.101 86.8238 226.182C88.2093 224.264 88.0354 223.801 88.0354 223.801C88.0354 223.801 87.5839 223.521 87.0146 223.24C86.6248 223.033 86.2652 222.774 85.946 222.469C85.5054 223.402 84.8659 224.227 84.0725 224.887C82.8104 225.891 81.9915 226.076 81.9915 226.076L82.7319 228.46Z" fill="#22C55E"/>
<path d="M141.744 196.686L142.916 196.327L144.094 198.158L143.172 198.82C143.172 198.82 141.969 196.837 141.744 196.686Z" fill="#EC4899"/>
<path d="M103.506 189.557C103.506 189.557 103.049 191.116 102.017 191.764C100.984 192.412 100.867 192.412 100.867 192.412L103.411 193.898C103.411 193.898 104.681 192.987 105.113 191.907C105.379 191.232 105.58 190.533 105.713 189.82L103.506 189.557Z" fill="#FB923C"/>
<path d="M177.242 203.925C177.242 203.925 177.966 206.449 179.604 207.492C181.242 208.536 181.432 208.538 181.432 208.538L177.394 210.939C177.394 210.939 175.374 209.467 174.69 207.725C174.267 206.636 173.947 205.509 173.737 204.36L177.242 203.925Z" fill="#22C55E"/>
<path d="M135.176 188.934C135.176 188.934 133.995 189.066 133.56 188.71C133.309 188.51 133.115 188.246 132.999 187.947L131.734 191.11C132.049 191.449 132.418 191.733 132.825 191.952C132.973 192.033 133.138 192.075 133.306 192.075C133.474 192.075 133.64 192.033 133.787 191.952L135.176 188.934Z" fill="#818CF8"/>
<path d="M32.2485 93.3298C32.2485 93.3298 31.7942 94.8892 30.7621 95.5371C29.73 96.1849 29.6094 96.1849 29.6094 96.1849L32.1532 97.6742C32.1532 97.6742 33.4237 96.7627 33.8556 95.6829C34.1221 95.0073 34.323 94.3076 34.4558 93.5935L32.2485 93.3298Z" fill="#22C55E"/>
<path d="M44.1094 171.105L45.3995 168.659C46.204 169.045 46.8841 169.648 47.3627 170.401C48.0162 171.559 47.388 173.394 47.388 173.394H45.924C45.924 173.394 46.2185 172.218 45.565 171.761C45.1192 171.464 44.6274 171.242 44.1094 171.105V171.105Z" fill="#FB923C"/>
<path d="M5.77013 137.093C6.37032 137.332 8.2943 138.176 8.2943 138.176L6.20766 141.048L4.04248 139.979L5.77013 137.093Z" fill="#EC4899"/>
<path d="M64.8299 173.789L58.4746 176.274C58.4746 176.274 59.6301 176.852 59.689 177.892L59.7479 178.93L65.3572 176.361C65.3572 176.361 64.541 174.6 64.8299 173.789Z" fill="url(#paint22_linear_239_5076)"/>
<path d="M2.82788 151.237C3.31435 151.709 3.85358 152.125 4.43493 152.474L5.09402 152.802C5.09402 152.802 3.80109 153.049 3.52904 154.011C3.25699 154.973 3.68329 156.069 3.68329 156.069C3.68329 156.069 2.00051 154.861 1.6331 154.064C1.2657 153.267 2.82788 151.237 2.82788 151.237Z" fill="#818CF8"/>
<path d="M7.63235 177.724L7.08545 174.773H9.76387L9.37964 177.497L7.63235 177.724Z" fill="#CF460D"/>
<path d="M28.9727 133.843L30.1478 133.484L31.3257 135.315L30.403 135.98C30.403 135.98 29.197 133.994 28.9727 133.843Z" fill="url(#paint23_linear_239_5076)"/>
<path d="M0.570172 161.665L-3.57788 163.314C-3.57788 163.314 -2.82343 163.698 -2.78697 164.388L-2.74771 165.078L0.898313 163.37C0.898313 163.37 0.382261 162.2 0.570172 161.665Z" fill="url(#paint24_linear_239_5076)"/>
<path d="M14.9469 93.3717L12.5181 92.5583L9.21704 94.6927L12.1871 96.1791L14.9469 93.3717Z" fill="#22C55E"/>
<path d="M45.6997 95.6155C45.6997 95.6155 44.5218 95.7502 44.0842 95.394C43.833 95.1938 43.6395 94.9306 43.5233 94.6311L42.25 97.7835C42.5653 98.1228 42.935 98.4072 43.3438 98.6249C43.4908 98.7054 43.6558 98.7476 43.8234 98.7476C43.991 98.7476 44.156 98.7054 44.303 98.6249L45.6997 95.6155Z" fill="#818CF8"/>
<path d="M113.516 51.2267L114.736 48.9128C115.498 49.2773 116.142 49.8487 116.595 50.562C117.212 51.6558 116.62 53.3918 116.62 53.3918H115.235C115.235 53.3918 115.515 52.27 114.895 51.8465C114.472 51.5666 114.006 51.3573 113.516 51.2267Z" fill="#FB923C"/>
<path d="M40.8559 15.6077C40.8559 15.6077 42.878 16.0816 43.0996 15.9274C43.3212 15.7731 42.634 17.9215 42.7631 18.6367L42.8893 19.3547C42.8893 19.3547 41.1195 18.9732 40.8671 18.5946C40.6147 18.216 40.8559 15.6077 40.8559 15.6077Z" fill="#818CF8"/>
<path d="M133.117 53.7507L127.107 56.101C127.107 56.101 128.198 56.6619 128.254 57.6295L128.307 58.614L133.608 56.1824C133.608 56.1824 132.845 54.522 133.117 53.7507Z" fill="url(#paint25_linear_239_5076)"/>
<path d="M65.2957 29.3868L65.6238 27.4236L68.4649 28.1808C68.4649 28.1808 67.8647 28.9998 67.8647 29.7094V30.4217L65.2957 29.9926V29.3868Z" fill="#FB923C"/>
<path d="M101.529 28.4641L102.813 28.2454C102.735 28.5128 102.735 28.7969 102.813 29.0643C102.877 29.2829 103.004 29.478 103.178 29.6252L101.529 29.9057V28.4641Z" fill="#22C55E"/>
<path d="M78.5307 35.2402C79.0115 35.7122 79.5451 36.1272 80.1209 36.4771L80.78 36.8052C80.78 36.8052 79.4899 37.052 79.215 38.014C78.9402 38.976 79.3721 40.0726 79.3721 40.0726C79.3721 40.0726 77.6893 38.8638 77.3219 38.0673C76.9545 37.2708 78.5307 35.2402 78.5307 35.2402Z" fill="#22C55E"/>
<path d="M93.5017 39.6548L95.9501 38.533C95.9501 38.533 95.8772 40.14 96.3821 40.8131C96.7343 41.2469 97.1867 41.5885 97.7002 41.8088L95.7566 43.054C95.7566 43.054 93.5746 41.5984 93.5017 39.6548Z" fill="url(#paint26_linear_239_5076)"/>
<path d="M74.2002 62.7537L73.6533 59.8032H76.3317L75.9475 62.5265L74.2002 62.7537Z" fill="#CF460D"/>
<path d="M102.008 6.81236L103.181 6.45337L104.359 8.28479L103.439 8.94669C103.439 8.94669 102.233 6.96381 102.008 6.81236Z" fill="url(#paint27_linear_239_5076)"/>
<path d="M67.1383 46.6943L62.9902 48.3435C62.9902 48.3435 63.7447 48.7277 63.7811 49.4176L63.8204 50.1076L67.4664 48.3996C67.4664 48.3996 66.9476 47.23 67.1383 46.6943Z" fill="url(#paint28_linear_239_5076)"/>
<path d="M85.6292 19.3633C85.7106 19.3044 81.9019 17.4197 81.9019 17.4197C81.9019 17.4197 81.5008 17.8993 81.2905 18.1629C81.1714 18.313 81.037 18.4503 80.8894 18.5724L85.2085 20.9367C85.2085 20.9367 85.1581 19.6998 85.6292 19.3633Z" fill="#FB923C"/>
<path d="M153.922 6.80396C153.922 6.80396 153.468 8.36333 152.435 9.0112C151.403 9.65907 151.283 9.65907 151.283 9.65907L153.827 11.1483C153.827 11.1483 155.1 10.234 155.529 9.15704C155.795 8.48137 155.996 7.78168 156.129 7.06759L153.922 6.80396Z" fill="#22C55E"/>
<path d="M132.528 11.3586C132.528 11.3586 132.974 12.918 133.989 13.5659C135.005 14.2138 135.111 14.2138 135.111 14.2138L132.612 15.7002C132.612 15.7002 131.364 14.7887 130.93 13.7089C130.668 13.0335 130.471 12.3348 130.341 11.6223L132.528 11.3586Z" fill="#FB923C"/>
<path d="M140.261 38.9929L137.832 38.1768L134.531 40.3111L137.501 41.8003L140.261 38.9929Z" fill="#818CF8"/>
<path d="M89.6791 0.987232C89.6791 0.987232 88.5011 1.11905 88.0636 0.765665C87.8126 0.564171 87.6191 0.300079 87.5027 0L86.2378 3.16362C86.5517 3.50326 86.9205 3.78769 87.3288 4.00501C87.4758 4.08553 87.6407 4.12774 87.8084 4.12774C87.976 4.12774 88.1409 4.08553 88.288 4.00501L89.6791 0.987232Z" fill="#818CF8"/>
<path d="M176.855 46.125C176.855 46.125 176.398 47.6844 175.366 48.3322C174.334 48.9801 174.216 48.9801 174.216 48.9801L176.76 50.4694C176.76 50.4694 178.031 49.5579 178.463 48.4781C178.729 47.8033 178.93 47.1046 179.063 46.3914L176.855 46.125Z" fill="#22C55E"/>
<path d="M191.554 118.981L192.774 116.667C193.536 117.031 194.18 117.603 194.631 118.316C195.251 119.41 194.656 121.146 194.656 121.146H193.274C193.274 121.146 193.554 120.024 192.934 119.601C192.511 119.321 192.045 119.111 191.554 118.981V118.981Z" fill="#FB923C"/>
<path d="M211.156 121.522L205.146 123.867C205.146 123.867 206.237 124.428 206.293 125.395L206.346 126.38L211.647 123.948C211.647 123.948 210.884 122.288 211.156 121.522Z" fill="url(#paint29_linear_239_5076)"/>
<path d="M143.343 97.1525L143.668 95.1892L146.512 95.9465C146.512 95.9465 145.909 96.7654 145.909 97.475V98.1874L143.343 97.7526V97.1525Z" fill="#FB923C"/>
<path d="M179.567 96.2297L180.849 96.011C180.773 96.2786 180.773 96.5623 180.849 96.8299C180.917 97.0434 181.045 97.2331 181.217 97.3768L179.567 97.6573V96.2297Z" fill="#22C55E"/>
<path d="M147.435 104.032C147.916 104.504 148.449 104.919 149.025 105.269L149.684 105.597C149.684 105.597 148.394 105.844 148.119 106.806C147.844 107.768 148.276 108.865 148.276 108.865C148.276 108.865 146.593 107.656 146.226 106.862C145.859 106.068 147.435 104.032 147.435 104.032Z" fill="#818CF8"/>
<path d="M174.539 126.427L176.987 125.305C176.987 125.305 176.914 126.912 177.419 127.583C177.771 128.017 178.223 128.359 178.737 128.578L176.794 129.824C176.794 129.824 174.612 128.371 174.539 126.427Z" fill="url(#paint30_linear_239_5076)"/>
<path d="M192.797 54.3509L193.972 53.9919L195.15 55.8234L194.224 56.4853C194.224 56.4853 193.021 54.5024 192.797 54.3509Z" fill="url(#paint31_linear_239_5076)"/>
<path d="M145.174 114.46L141.021 116.109C141.021 116.109 141.775 116.493 141.811 117.183L141.848 117.873L145.494 116.165C145.494 116.165 144.986 114.995 145.174 114.46Z" fill="#EC4899"/>
<path d="M141.077 65.5947C141.077 65.5947 140.622 67.1541 139.59 67.802C138.558 68.4498 138.438 68.4498 138.438 68.4498L140.981 69.9391C140.981 69.9391 142.252 69.0248 142.684 67.9478C142.95 67.2721 143.151 66.5724 143.284 65.8584L141.077 65.5947Z" fill="#FB923C"/>
<path d="M210.576 79.1243C210.576 79.1243 211.024 80.6836 212.04 81.3315C213.055 81.9794 213.161 81.9794 213.161 81.9794L210.66 83.4799C210.66 83.4799 209.409 82.5684 208.977 81.4886C208.715 80.8131 208.518 80.1145 208.388 79.4019L210.576 79.1243Z" fill="#FB923C"/>
<path d="M155.896 51.1901L153.468 50.3767L150.167 52.511L153.137 53.9975L155.896 51.1901Z" fill="url(#paint32_linear_239_5076)"/>
<path d="M167.718 68.7529C167.718 68.7529 166.54 68.8847 166.103 68.5285C165.851 68.3283 165.658 68.0651 165.542 67.7656L164.274 70.9292C164.589 71.2686 164.959 71.553 165.368 71.7706C165.515 71.8512 165.68 71.8934 165.847 71.8934C166.015 71.8934 166.18 71.8512 166.327 71.7706L167.718 68.7529Z" fill="#818CF8"/>
<path d="M108.952 254.231C108.952 254.231 108.128 257.059 106.257 258.234C104.386 259.409 104.168 259.409 104.168 259.409L108.779 262.104C108.779 262.104 111.084 260.452 111.864 258.494C112.346 257.271 112.71 256.004 112.952 254.711L108.952 254.231Z" fill="#22C55E"/>
<path d="M82.5497 209.733L77.5575 207.433C77.5575 207.433 77.7033 210.715 76.6768 212.083C75.9579 212.969 75.0337 213.666 73.9844 214.114L77.9473 216.655C77.9473 216.655 82.4039 213.699 82.5497 209.733Z" fill="url(#paint33_linear_239_5076)"/>
<path d="M96.1829 193.141L89.8276 195.626C89.8276 195.626 90.9831 196.204 91.042 197.241L91.0981 198.282L96.7074 195.713C96.7074 195.713 95.8941 193.94 96.1829 193.141Z" fill="url(#paint34_linear_239_5076)"/>
</g>
<defs>
<linearGradient id="paint0_linear_239_5076" x1="176.659" y1="131.313" x2="184.863" y2="131.313" gradientUnits="userSpaceOnUse">
<stop offset="0.01" stop-color="#FFF2A6"/>
<stop offset="1" stop-color="#CE8704"/>
</linearGradient>
<linearGradient id="paint1_linear_239_5076" x1="181.609" y1="74.8135" x2="191.476" y2="74.8135" gradientUnits="userSpaceOnUse">
<stop offset="0.01" stop-color="#A89100"/>
<stop offset="0.08" stop-color="#BDA10F"/>
<stop offset="0.2" stop-color="#D9B824"/>
<stop offset="0.32" stop-color="#EEC933"/>
<stop offset="0.44" stop-color="#FBD33C"/>
<stop offset="0.56" stop-color="#FFD63F"/>
<stop offset="0.64" stop-color="#FAD23C"/>
<stop offset="0.74" stop-color="#EDC832"/>
<stop offset="0.85" stop-color="#D7B622"/>
<stop offset="0.95" stop-color="#B89D0B"/>
<stop offset="1" stop-color="#A89100"/>
</linearGradient>
<linearGradient id="paint2_linear_239_5076" x1="105.141" y1="63.4883" x2="113.451" y2="63.4883" gradientUnits="userSpaceOnUse">
<stop offset="0.01" stop-color="#FFF2A6"/>
<stop offset="1" stop-color="#CE8704"/>
</linearGradient>
<linearGradient id="paint3_linear_239_5076" x1="34.9017" y1="125.586" x2="39.4227" y2="125.586" gradientUnits="userSpaceOnUse">
<stop offset="0.01" stop-color="#FFF2A6"/>
<stop offset="1" stop-color="#CE8704"/>
</linearGradient>
<linearGradient id="paint4_linear_239_5076" x1="157.167" y1="23.9656" x2="161.211" y2="23.9656" gradientUnits="userSpaceOnUse">
<stop offset="0.01" stop-color="#FFF2A6"/>
<stop offset="1" stop-color="#CE8704"/>
</linearGradient>
<linearGradient id="paint5_linear_239_5076" x1="8.61108" y1="196.762" x2="13.6931" y2="196.762" gradientUnits="userSpaceOnUse">
<stop offset="0.01" stop-color="#A89100"/>
<stop offset="0.08" stop-color="#BDA10F"/>
<stop offset="0.2" stop-color="#D9B824"/>
<stop offset="0.32" stop-color="#EEC933"/>
<stop offset="0.44" stop-color="#FBD33C"/>
<stop offset="0.56" stop-color="#FFD63F"/>
<stop offset="0.64" stop-color="#FAD23C"/>
<stop offset="0.74" stop-color="#EDC832"/>
<stop offset="0.85" stop-color="#D7B622"/>
<stop offset="0.95" stop-color="#B89D0B"/>
<stop offset="1" stop-color="#A89100"/>
</linearGradient>
<linearGradient id="paint6_linear_239_5076" x1="84.2435" y1="209.554" x2="87.3735" y2="209.554" gradientUnits="userSpaceOnUse">
<stop offset="0.01" stop-color="#FFF2A6"/>
<stop offset="1" stop-color="#CE8704"/>
</linearGradient>
<linearGradient id="paint7_linear_239_5076" x1="61.1448" y1="12.3348" x2="67.7805" y2="12.3348" gradientUnits="userSpaceOnUse">
<stop offset="0.01" stop-color="#FFF2A6"/>
<stop offset="1" stop-color="#CE8704"/>
</linearGradient>
<linearGradient id="paint8_linear_239_5076" x1="201.068" y1="188.889" x2="209.17" y2="188.889" gradientUnits="userSpaceOnUse">
<stop offset="0.01" stop-color="#FFF2A6"/>
<stop offset="1" stop-color="#CE8704"/>
</linearGradient>
<linearGradient id="paint9_linear_239_5076" x1="129.763" y1="236.041" x2="135.504" y2="236.041" gradientUnits="userSpaceOnUse">
<stop offset="0.01" stop-color="#FFF2A6"/>
<stop offset="1" stop-color="#CE8704"/>
</linearGradient>
<linearGradient id="paint10_linear_239_5076" x1="22.281" y1="60.1425" x2="27.9632" y2="60.1425" gradientUnits="userSpaceOnUse">
<stop offset="0.01" stop-color="#FFF2A6"/>
<stop offset="1" stop-color="#CE8704"/>
</linearGradient>
<linearGradient id="paint11_linear_239_5076" x1="155.319" y1="106.674" x2="161.693" y2="106.674" gradientUnits="userSpaceOnUse">
<stop offset="0.01" stop-color="#FFF2A6"/>
<stop offset="1" stop-color="#CE8704"/>
</linearGradient>
<linearGradient id="paint12_linear_239_5076" x1="133.243" y1="70.416" x2="137.767" y2="70.416" gradientUnits="userSpaceOnUse">
<stop offset="0.01" stop-color="#FFF2A6"/>
<stop offset="1" stop-color="#CE8704"/>
</linearGradient>
<linearGradient id="paint13_linear_239_5076" x1="85.0008" y1="72.2837" x2="77.95" y2="72.2837" gradientUnits="userSpaceOnUse">
<stop offset="0.01" stop-color="#FFF2A6"/>
<stop offset="1" stop-color="#CE8704"/>
</linearGradient>
<linearGradient id="paint14_linear_239_5076" x1="19.0922" y1="100.195" x2="25.4671" y2="100.195" gradientUnits="userSpaceOnUse">
<stop offset="0.01" stop-color="#FFF2A6"/>
<stop offset="1" stop-color="#CE8704"/>
</linearGradient>
<linearGradient id="paint15_linear_239_5076" x1="127.564" y1="191.915" x2="134.702" y2="191.915" gradientUnits="userSpaceOnUse">
<stop offset="0.01" stop-color="#FFF2A6"/>
<stop offset="1" stop-color="#CE8704"/>
</linearGradient>
<linearGradient id="paint16_linear_239_5076" x1="137.195" y1="80.8742" x2="132.291" y2="78.9233" gradientUnits="userSpaceOnUse">
<stop offset="0.01" stop-color="#FFF2A6"/>
<stop offset="1" stop-color="#CE8704"/>
</linearGradient>
<linearGradient id="paint17_linear_239_5076" x1="82.1402" y1="151.54" x2="72.9858" y2="151.54" gradientUnits="userSpaceOnUse">
<stop offset="0.01" stop-color="#FFF2A6"/>
<stop offset="1" stop-color="#CE8704"/>
</linearGradient>
<linearGradient id="paint18_linear_239_5076" x1="69.3005" y1="250.529" x2="73.4991" y2="250.529" gradientUnits="userSpaceOnUse">
<stop offset="0.01" stop-color="#FFF2A6"/>
<stop offset="1" stop-color="#CE8704"/>
</linearGradient>
<linearGradient id="paint19_linear_239_5076" x1="78.1379" y1="123.465" x2="81.3072" y2="123.465" gradientUnits="userSpaceOnUse">
<stop offset="0.01" stop-color="#FFF2A6"/>
<stop offset="1" stop-color="#CE8704"/>
</linearGradient>
<linearGradient id="paint20_linear_239_5076" x1="203.244" y1="231.836" x2="210.842" y2="231.836" gradientUnits="userSpaceOnUse">
<stop offset="0.01" stop-color="#A89100"/>
<stop offset="0.08" stop-color="#BDA10F"/>
<stop offset="0.2" stop-color="#D9B824"/>
<stop offset="0.32" stop-color="#EEC933"/>
<stop offset="0.44" stop-color="#FBD33C"/>
<stop offset="0.56" stop-color="#FFD63F"/>
<stop offset="0.64" stop-color="#FAD23C"/>
<stop offset="0.74" stop-color="#EDC832"/>
<stop offset="0.85" stop-color="#D7B622"/>
<stop offset="0.95" stop-color="#B89D0B"/>
<stop offset="1" stop-color="#A89100"/>
</linearGradient>
<linearGradient id="paint21_linear_239_5076" x1="141.997" y1="247.736" x2="146.195" y2="247.736" gradientUnits="userSpaceOnUse">
<stop offset="0.01" stop-color="#FFF2A6"/>
<stop offset="1" stop-color="#CE8704"/>
</linearGradient>
<linearGradient id="paint22_linear_239_5076" x1="58.4746" y1="176.361" x2="65.3488" y2="176.361" gradientUnits="userSpaceOnUse">
<stop offset="0.01" stop-color="#FFF2A6"/>
<stop offset="1" stop-color="#CE8704"/>
</linearGradient>
<linearGradient id="paint23_linear_239_5076" x1="33.1228" y1="132.965" x2="30.5823" y2="131.954" gradientUnits="userSpaceOnUse">
<stop offset="0.01" stop-color="#FFF2A6"/>
<stop offset="1" stop-color="#CE8704"/>
</linearGradient>
<linearGradient id="paint24_linear_239_5076" x1="0.909532" y1="163.37" x2="-3.57788" y2="163.37" gradientUnits="userSpaceOnUse">
<stop offset="0.01" stop-color="#FFF2A6"/>
<stop offset="1" stop-color="#CE8704"/>
</linearGradient>
<linearGradient id="paint25_linear_239_5076" x1="127.107" y1="56.188" x2="133.608" y2="56.188" gradientUnits="userSpaceOnUse">
<stop offset="0.01" stop-color="#FFF2A6"/>
<stop offset="1" stop-color="#CE8704"/>
</linearGradient>
<linearGradient id="paint26_linear_239_5076" x1="93.5017" y1="40.7879" x2="97.7002" y2="40.7879" gradientUnits="userSpaceOnUse">
<stop offset="0.01" stop-color="#FFF2A6"/>
<stop offset="1" stop-color="#CE8704"/>
</linearGradient>
<linearGradient id="paint27_linear_239_5076" x1="105.863" y1="5.61108" x2="103.323" y2="4.60035" gradientUnits="userSpaceOnUse">
<stop offset="0.01" stop-color="#FFF2A6"/>
<stop offset="1" stop-color="#CE8704"/>
</linearGradient>
<linearGradient id="paint28_linear_239_5076" x1="67.4776" y1="48.3996" x2="62.9902" y2="48.3996" gradientUnits="userSpaceOnUse">
<stop offset="0.01" stop-color="#FFF2A6"/>
<stop offset="1" stop-color="#CE8704"/>
</linearGradient>
<linearGradient id="paint29_linear_239_5076" x1="205.146" y1="123.954" x2="211.647" y2="123.954" gradientUnits="userSpaceOnUse">
<stop offset="0.01" stop-color="#FFF2A6"/>
<stop offset="1" stop-color="#CE8704"/>
</linearGradient>
<linearGradient id="paint30_linear_239_5076" x1="174.539" y1="127.557" x2="178.737" y2="127.557" gradientUnits="userSpaceOnUse">
<stop offset="0.01" stop-color="#FFF2A6"/>
<stop offset="1" stop-color="#CE8704"/>
</linearGradient>
<linearGradient id="paint31_linear_239_5076" x1="196.869" y1="52.9358" x2="194.329" y2="51.9251" gradientUnits="userSpaceOnUse">
<stop offset="0.01" stop-color="#FFF2A6"/>
<stop offset="1" stop-color="#CE8704"/>
</linearGradient>
<linearGradient id="paint32_linear_239_5076" x1="150.167" y1="52.1857" x2="155.896" y2="52.1857" gradientUnits="userSpaceOnUse">
<stop offset="0.01" stop-color="#FFF2A6"/>
<stop offset="1" stop-color="#CE8704"/>
</linearGradient>
<linearGradient id="paint33_linear_239_5076" x1="82.5497" y1="212.044" x2="73.9844" y2="212.044" gradientUnits="userSpaceOnUse">
<stop offset="0.01" stop-color="#FFF2A6"/>
<stop offset="1" stop-color="#CE8704"/>
</linearGradient>
<linearGradient id="paint34_linear_239_5076" x1="89.8276" y1="195.704" x2="96.7018" y2="195.704" gradientUnits="userSpaceOnUse">
<stop offset="0.01" stop-color="#FFF2A6"/>
<stop offset="1" stop-color="#CE8704"/>
</linearGradient>
<clipPath id="clip0_239_5076">
<rect width="209" height="264" fill="white"/>
</clipPath>
</defs>
</svg>
