<svg width="469" height="434" viewBox="0 0 469 434" fill="none" xmlns="http://www.w3.org/2000/svg">
<path d="M149.269 90.5566C149.347 86.8709 148.573 82.6002 147.998 81.3424L147.426 80.0432C147.426 80.0432 155.631 79.1909 156.147 79.1909H156.64C156.64 79.1909 156.355 88.7091 156.64 90.5566L156.921 92.3994C156.921 92.3994 151.527 92.2566 150.103 92.3994L148.684 92.5422C148.971 91.9112 149.168 91.2427 149.269 90.5566Z" fill="#818CF8"/>
<path d="M227.589 141.939C227.589 141.939 230.985 145.233 233.385 146.431L235.781 147.629C235.781 147.629 231.086 148.55 230.086 152.024C229.087 155.498 230.658 159.52 230.658 159.52C230.658 159.52 224.493 155.125 223.194 152.227C221.895 149.329 227.589 141.939 227.589 141.939Z" fill="#22C55E"/>
<path d="M287.408 282.805L295.166 279.23C295.166 279.23 294.936 284.33 296.548 286.459C297.666 287.834 299.102 288.917 300.731 289.614L294.572 293.563C294.572 293.563 287.633 288.969 287.408 282.805Z" fill="#818CF8"/>
<path d="M349.29 104.594L356.822 99.6509C356.822 99.6509 358.799 103.834 361.231 105.129C362.681 105.909 364.212 106.527 365.797 106.972L360.015 112.219C360.015 112.219 350.506 107.105 349.29 104.594Z" fill="#FB923C"/>
<path d="M408.647 202.55C408.647 202.55 407.201 207.493 403.93 209.548C400.659 211.603 400.281 211.603 400.281 211.603L408.343 216.316C408.343 216.316 412.375 213.427 413.743 210.004C414.589 207.865 415.226 205.65 415.646 203.388L408.647 202.55Z" fill="#22C55E"/>
<path d="M163.809 397.019C163.652 396.909 170.992 393.333 170.992 393.333C170.992 393.333 171.761 394.255 172.171 394.743C172.4 395.027 172.66 395.285 172.945 395.513L164.629 400.014C164.629 400.014 164.721 397.655 163.809 397.019Z" fill="#22C55E"/>
<path d="M269.435 87.4976C269.435 87.4976 268.251 93.8507 271.545 98.3887C274.839 102.927 276.014 102.867 276.014 102.867C276.014 102.867 276.936 102.042 278.005 100.973C278.76 100.249 279.609 99.6287 280.529 99.1304C278.753 97.4561 277.367 95.4113 276.47 93.1412C275.139 89.5569 275.328 87.5805 275.328 87.5805L269.435 87.4976Z" fill="#818CF8"/>
<path d="M146.588 335.312C146.669 334.088 147.017 332.897 147.606 331.822C148.194 330.746 149.01 329.811 149.997 329.083L153.333 326.697L148.348 323.117C148.348 323.117 144.533 324.218 142.746 327.263C141.688 329.02 141.006 330.976 140.741 333.008L146.588 335.312Z" fill="#CF460D"/>
<path d="M199.417 78.3247C199.417 78.3247 197.183 83.5952 196.45 84.6088L195.727 85.6315L211.308 89.0362C211.995 87.389 212.803 85.7952 213.727 84.2678L214.86 82.5817L199.417 78.3247Z" fill="#22C55E"/>
<path d="M388.911 264.718L392.781 257.379C392.781 257.379 396.71 259.139 398.673 262.608C400.636 266.077 398.751 271.582 398.751 271.582H394.361C394.361 271.582 395.245 268.058 393.283 266.685C391.942 265.796 390.465 265.131 388.911 264.718V264.718Z" fill="#FB923C"/>
<path d="M320.03 357.624C321.633 358.458 324.144 358.255 325.766 357.956C326.595 357.859 327.383 357.541 328.046 357.034C327.067 359.392 326.905 362.01 327.586 364.47C328.738 368.616 330.663 369.616 330.663 369.616C330.663 369.616 324.674 367.382 322.237 364.208C320.786 362.321 320.009 360.003 320.03 357.624V357.624Z" fill="#FB923C"/>
<path d="M346.258 177.824C346.258 177.824 352.662 179.33 353.33 178.842C353.998 178.354 351.861 185.163 352.261 187.434L352.662 189.701C352.662 189.701 347.06 188.498 346.258 187.3C345.457 186.103 346.258 177.824 346.258 177.824Z" fill="#818CF8"/>
<path d="M363.01 209.433C364.917 210.198 371.017 212.87 371.017 212.87L364.419 221.973L357.555 218.587L363.01 209.433Z" fill="url(#paint0_linear_239_4792)"/>
<path d="M431.586 244.014L412.526 251.463C412.526 251.463 415.991 253.196 416.166 256.315L416.341 259.434L433.148 251.726C433.148 251.726 430.72 246.442 431.586 244.014Z" fill="url(#paint1_linear_239_4792)"/>
<path d="M340.702 232.468L341.743 226.263L350.755 228.658C350.755 228.658 348.847 231.257 348.847 233.51V235.762L340.702 234.38V232.468Z" fill="#FB923C"/>
<path d="M369.487 122.567L380.226 115.969L381.88 121.489L365.673 129.818L369.487 122.567Z" fill="url(#paint2_linear_239_4792)"/>
<path d="M285.5 183.352L283.768 173.995H292.259L291.047 182.634L285.5 183.352Z" fill="url(#paint3_linear_239_4792)"/>
<path d="M359.121 42.5002L364.023 42.9011L362.162 51.5025L357.61 50.3046L359.121 42.5002Z" fill="#FB923C"/>
<path d="M455.561 229.543L459.634 228.847C459.387 229.697 459.387 230.6 459.634 231.45C459.849 232.125 460.25 232.725 460.79 233.182L455.561 234.062V229.543Z" fill="#22C55E"/>
<path d="M295.014 36.4512H300.386L299.492 38.6902H292.821L295.014 36.4512Z" fill="#22C55E"/>
<path d="M401.912 71.3082C399.468 68.1129 396.165 65.6792 392.389 64.2916C386.202 62.0848 378.222 67.5165 378.222 67.5165L388.201 74.9339L391.592 71.5247C394.144 68.954 398.963 70.2485 401.179 71.064C401.912 71.3266 402.368 71.5247 402.368 71.5247L401.912 71.3082Z" fill="url(#paint4_linear_239_4792)"/>
<path d="M77.6292 254.587L83.6967 251.813L87.1934 256.642L82.4113 260.816L77.6292 254.587Z" fill="#22C55E"/>
<path d="M245.474 99.4805C246.331 101.475 248.201 103.567 250.639 103.936C253.076 104.304 253.712 103.936 253.712 103.936L249.777 109.1C249.777 109.1 243.742 108.487 241.904 106.147L240.061 103.811L245.474 99.4805Z" fill="url(#paint5_linear_239_4792)"/>
<path d="M149.209 106.99L142.004 106.046C142.004 106.046 140.373 114.56 142.133 117.688L143.897 120.816L151.301 119.922C151.301 119.922 148.034 117.619 148.14 114.325C148.29 111.854 148.647 109.401 149.209 106.99V106.99Z" fill="#CF460D"/>
<path d="M155.973 174.562C156.042 174.562 150.61 170.231 150.61 170.231L140.645 177.303L144.072 182.689C144.072 182.689 154.484 174.875 155.973 174.562Z" fill="#22C55E"/>
<path d="M67.7885 210.751L60.2928 207.235C60.2928 207.235 60.5139 212.248 58.9706 214.339C57.8968 215.687 56.5097 216.751 54.9302 217.44L60.8825 221.319C60.8825 221.319 67.5674 216.804 67.7885 210.751Z" fill="#22C55E"/>
<path d="M321.173 188.729L313.769 183.785C313.769 183.785 311.825 187.969 309.434 189.263C308.01 190.04 306.506 190.658 304.947 191.106L310.627 196.353C310.627 196.353 319.975 191.217 321.173 188.729Z" fill="#FB923C"/>
<path d="M188.093 232.183C188.093 232.183 184.278 236.057 184.057 240.084C183.836 244.11 184.03 244.456 184.03 244.456L175.571 239.605C175.571 239.605 176.175 234.454 178.63 231.441C180.17 229.564 181.886 227.837 183.753 226.286L188.093 232.183Z" fill="#22C55E"/>
<path d="M188.766 276.323C189.042 276.13 176.28 269.813 176.28 269.813C176.28 269.813 174.935 271.421 174.226 272.306C173.83 272.815 173.378 273.278 172.88 273.688L187.342 281.649C187.342 281.649 187.185 277.452 188.766 276.323Z" fill="#22C55E"/>
<path d="M244.101 214.312C244.101 214.312 238.112 218.739 231.819 217.537C225.525 216.334 225 215.09 225 215.09C225 215.09 225.387 213.708 225.972 212.05C226.346 210.893 226.564 209.693 226.622 208.479C229.223 209.502 232.02 209.932 234.809 209.737C239.162 209.341 241.111 208.152 241.111 208.152L244.101 214.312Z" fill="#CF460D"/>
<path d="M137.406 238.978C137.406 238.978 133.67 239.402 132.283 238.273C131.479 237.641 130.859 236.806 130.486 235.854L126.469 245.879C127.467 246.956 128.636 247.861 129.929 248.556C130.396 248.811 130.919 248.945 131.451 248.945C131.983 248.945 132.507 248.811 132.974 248.556L137.406 238.978Z" fill="#818CF8"/>
<path d="M124.267 189.53C124.189 188.382 123.866 187.264 123.319 186.251C122.772 185.239 122.015 184.355 121.097 183.661L117.996 181.404L122.649 178.013C122.649 178.013 126.197 179.059 127.855 181.924C128.834 183.591 129.462 185.442 129.698 187.36L124.267 189.53Z" fill="#818CF8"/>
<path d="M263.382 297.755C263.382 297.755 265.589 303.026 266.298 304.048L267.012 305.067L251.694 308.471C251.019 306.827 250.225 305.235 249.316 303.707L248.206 302.021L263.382 297.755Z" fill="#22C55E"/>
<path d="M154.337 253.564L150.319 245.806C150.319 245.806 146.238 247.649 144.197 251.334C142.156 255.02 144.114 260.82 144.114 260.82H148.675C148.675 260.82 147.753 257.093 149.794 255.642C151.184 254.704 152.718 254.001 154.337 253.564V253.564Z" fill="#CF460D"/>
<path d="M42.1593 174.023C41.5972 175.741 39.6853 177.34 38.3354 178.257C36.9855 179.174 36.0872 179.178 36.0872 179.178C38.3902 180.207 40.2828 181.976 41.4636 184.205C43.4861 187.978 42.8135 190.037 42.8135 190.037C42.8135 190.037 45.5132 184.269 45.0617 180.289C44.8101 177.938 43.7899 175.735 42.1593 174.023V174.023Z" fill="url(#paint6_linear_239_4792)"/>
<path d="M131.762 200.357C131.762 200.357 125.469 201.863 124.81 201.375C124.151 200.887 126.257 207.696 125.861 209.967L125.469 212.234C125.469 212.234 130.998 211.032 131.762 209.834C132.527 208.636 131.762 200.357 131.762 200.357Z" fill="url(#paint7_linear_239_4792)"/>
<path d="M53.465 282.833C52.152 283.372 47.9365 285.247 47.9365 285.247L52.4975 291.637L57.2336 289.26L53.465 282.833Z" fill="#818CF8"/>
<path d="M172.424 159.151L186.324 164.68C186.324 164.68 183.799 165.965 183.675 168.278L183.546 170.582L171.291 164.86C171.291 164.86 173.06 160.953 172.424 159.151Z" fill="url(#paint8_linear_239_4792)"/>
<path d="M136.876 285.616L135.853 279.41L126.999 281.792C126.999 281.792 128.874 284.39 128.874 286.643V288.896L136.876 287.514V285.616Z" fill="url(#paint9_linear_239_4792)"/>
<path d="M332.165 40.4225L330.802 35.2119L325.522 36.078L328.844 43.5277L332.165 40.4225Z" fill="url(#paint10_linear_239_4792)"/>
<path d="M88.138 327.895L89.838 318.538H81.4946L82.6879 327.171L88.138 327.895Z" fill="url(#paint11_linear_239_4792)"/>
<path d="M246.723 325.269L241.904 325.669L243.733 334.271L248.206 333.073L246.723 325.269Z" fill="#CF460D"/>
<path d="M210.875 342.315L206.858 341.619C207.101 342.47 207.101 343.372 206.858 344.222C206.648 344.895 206.254 345.495 205.72 345.954L210.861 346.834L210.875 342.315Z" fill="url(#paint12_linear_239_4792)"/>
<path d="M414.088 346.618H408.809L409.689 348.857H416.244L414.088 346.618Z" fill="#CF460D"/>
<path d="M225.461 25.4542C223.11 26.3319 221.058 27.8613 219.545 29.8632L219.264 29.9922C219.264 29.9922 219.545 29.8632 220.002 29.6973C221.384 29.1951 224.374 28.3797 225.958 29.9922L228.064 32.1391L234.265 27.4813C234.265 27.4813 229.303 24.0675 225.461 25.4542Z" fill="#CF460D"/>
<path d="M159.635 366.714L156.663 360.444L142.326 365.115L147.196 369.681L159.635 366.714Z" fill="#CF460D"/>
<path d="M80.3935 131.361L74.432 128.588L70.9905 133.416L75.6943 137.59L80.3935 131.361Z" fill="#CF460D"/>
<path d="M180.874 306.417C179.616 309.379 176.884 312.484 173.332 313.032C169.78 313.58 168.845 313.032 168.845 313.032L174.608 320.703C174.608 320.703 183.417 319.782 186.126 316.322L188.812 312.853L180.874 306.417Z" fill="#22C55E"/>
<path d="M298.686 360.531H289.854L291.324 364.277H302.293L298.686 360.531Z" fill="#22C55E"/>
<path d="M114.301 388.478C111.951 389.355 109.899 390.885 108.386 392.887L108.105 393.02C108.105 393.02 108.386 392.887 108.842 392.721C110.224 392.219 113.214 391.408 114.799 393.02L116.904 395.162L123.101 390.518C123.101 390.518 118.144 387.091 114.301 388.478Z" fill="#818CF8"/>
<path d="M178.69 21.5196L176.815 16.7559L167.79 20.3033L170.858 23.7678L178.69 21.5196Z" fill="url(#paint13_linear_239_4792)"/>
<path d="M274.125 270.513L268.164 267.74L264.727 272.568L269.426 276.742L274.125 270.513Z" fill="#CF460D"/>
<path d="M350.137 387.492L353.514 384.787L359.061 386.202L356.311 389.371L350.137 387.492Z" fill="#818CF8"/>
<path d="M27.5318 110.491H42.2975C42.2975 110.491 40.0677 116.941 42.2975 118.886L44.5227 120.834C44.5227 120.834 31.3603 120.374 29.9505 120.834C28.5408 121.295 27.4673 112.841 27.5318 110.491Z" fill="url(#paint14_linear_239_4792)"/>
<path d="M215.445 109.98C216.758 105.728 217.288 100.536 217.03 98.8633L216.786 97.1909C216.786 97.1909 226.567 98.9232 227.166 99.0936L227.76 99.2641C227.76 99.2641 224.277 110.197 223.996 112.427L223.71 114.661C223.71 114.661 217.505 112.708 215.814 112.403L214.123 112.095C214.661 111.456 215.106 110.744 215.445 109.98V109.98Z" fill="#FB923C"/>
<path d="M363.456 261.802C363.456 261.802 366.414 264.676 368.524 265.718L370.611 266.763C370.611 266.763 366.52 267.547 365.649 270.596C364.779 273.646 366.147 277.125 366.147 277.125C366.147 277.125 360.775 273.292 359.646 270.767C358.518 268.242 363.456 261.802 363.456 261.802Z" fill="#818CF8"/>
<path d="M397.636 306.67L405.395 303.095C405.395 303.095 405.169 308.195 406.777 310.323C407.895 311.698 409.331 312.781 410.96 313.479L404.8 317.427C404.8 317.427 397.862 312.853 397.636 306.67Z" fill="url(#paint15_linear_239_4792)"/>
<path d="M115.601 131.758L123.133 126.81C123.133 126.81 125.11 130.998 127.547 132.287C128.995 133.067 130.525 133.685 132.108 134.13L126.33 139.378C126.33 139.378 116.821 134.269 115.601 131.758Z" fill="#FB923C"/>
<path d="M283.441 220.845C283.441 220.845 281.994 225.793 278.728 227.843C275.461 229.893 275.079 229.897 275.079 229.897L283.141 234.615C283.141 234.615 287.173 231.727 288.541 228.303C289.387 226.163 290.025 223.946 290.444 221.683L283.441 220.845Z" fill="#22C55E"/>
<path d="M347.373 327.95C347.051 327.95 354.04 316.206 354.04 316.206C354.04 316.206 355.956 316.768 356.988 317.091C357.57 317.282 358.171 317.407 358.78 317.464L351.271 331.396C351.271 331.396 349.239 328.005 347.373 327.95Z" fill="#FB923C"/>
<path d="M387.616 295.751L385.884 286.399H394.375L393.158 295.032L387.616 295.751Z" fill="#CF460D"/>
<path d="M330.447 213.174C330.447 213.174 339.03 212.031 343.425 205.945C347.82 199.859 347.263 198.404 347.263 198.404C347.263 198.404 345.83 197.561 344.038 196.658C342.806 195.998 341.668 195.175 340.656 194.211C339.259 197.169 337.23 199.784 334.713 201.873C330.714 205.056 328.116 205.641 328.116 205.641L330.447 213.174Z" fill="#CF460D"/>
<path d="M234.726 299.142C234.818 294.691 233.887 289.559 233.191 288.02L232.496 286.477C232.496 286.477 242.378 285.477 243 285.477H243.622C243.622 285.477 243.281 296.944 243.622 299.165L243.963 301.39C243.963 301.39 237.458 301.22 235.748 301.39L234.039 301.565C234.383 300.794 234.614 299.978 234.726 299.142Z" fill="#22C55E"/>
<path d="M311.931 307.108L319.1 304.744L328.844 310.936L320.072 315.253L311.931 307.108Z" fill="#22C55E"/>
<path d="M170.922 116.789C170.922 116.789 176.414 120.788 182.205 119.715C187.996 118.641 188.471 117.508 188.471 117.508C188.471 117.508 188.116 116.255 187.577 114.744C187.233 113.7 187.032 112.616 186.978 111.519C184.585 112.443 182.018 112.83 179.459 112.652C175.46 112.297 173.668 111.219 173.668 111.219L170.922 116.789Z" fill="#22C55E"/>
<path d="M68.5164 67.7148C68.2492 68.7146 67.3554 69.6498 66.7242 70.1842C66.4386 70.4696 66.0686 70.6553 65.6692 70.714C66.8228 71.3746 67.7154 72.4103 68.1985 73.6488C69.1475 75.8509 68.8296 77.0488 68.8296 77.0488C68.8296 77.0488 70.0966 73.6856 69.8847 71.3682C69.7889 70.0443 69.3139 68.776 68.5164 67.7148Z" fill="#FB923C"/>
<path d="M133.495 42.8871L132.854 39.8511L130.38 40.3578L131.937 44.7023L133.495 42.8871Z" fill="#CF460D"/>
<path d="M26.3616 150.029H30.3559C30.3559 150.029 29.7524 152.195 30.3559 152.853L30.9594 153.508C30.9594 153.508 27.3982 153.351 27.0158 153.508C26.6334 153.664 26.3477 150.812 26.3616 150.029Z" fill="#FB923C"/>
<path d="M198.565 375.776C198.565 375.776 198.021 377.619 196.796 378.397C196.37 378.712 195.905 378.971 195.414 379.167L198.436 380.936C198.436 380.936 199.947 379.853 200.458 378.568C200.776 377.767 201.016 376.937 201.172 376.089L198.565 375.776Z" fill="#FB923C"/>
<path d="M111.505 352.625H116.877L115.983 354.864H109.312L111.505 352.625Z" fill="#22C55E"/>
<path d="M289.937 389.229L288.002 381.83L280.506 383.06L285.224 393.642L289.937 389.229Z" fill="url(#paint16_linear_239_4792)"/>
<path d="M328.844 255.932C328.844 255.932 330.267 256.089 330.797 255.665C331.105 255.425 331.342 255.107 331.484 254.743L333.013 258.498C332.633 258.904 332.187 259.243 331.696 259.503C331.517 259.597 331.317 259.647 331.115 259.647C330.913 259.647 330.713 259.597 330.535 259.503L328.844 255.932Z" fill="#22C55E"/>
<path d="M213.082 417.7C212.438 418.343 211.722 418.908 210.949 419.386L210.069 419.847C210.069 419.847 211.796 420.188 212.165 421.496C212.358 422.433 212.284 423.405 211.953 424.302C211.953 424.302 214.224 422.657 214.717 421.57C215.21 420.483 213.082 417.7 213.082 417.7Z" fill="#818CF8"/>
<path d="M91.8835 284.712L94.7031 282.87C94.7031 282.87 95.4448 284.436 96.357 284.92C96.9019 285.21 97.4765 285.44 98.0708 285.606L95.9009 287.573C95.9009 287.573 92.3396 285.652 91.8835 284.712Z" fill="#FB923C"/>
<path d="M94.2515 71.1517L96.1404 65.204C96.1404 65.204 92.4179 65.8628 90.6995 64.9137C89.587 64.2423 88.6555 63.3092 87.9859 62.1956L85.6824 67.0284C85.6824 67.0284 89.6997 71.5848 94.2515 71.1517Z" fill="#22C55E"/>
<path d="M75.6896 102.48C75.6896 102.48 75.0169 99.7754 75.7126 98.6513C76.0988 97.9987 76.6523 97.4611 77.3159 97.0941L69.5668 95.113C68.8711 95.9495 68.3199 96.8962 67.9359 97.9141C67.7934 98.2814 67.7457 98.6786 67.7973 99.0691C67.8488 99.4596 67.9979 99.8309 68.2307 100.149L75.6896 102.48Z" fill="#818CF8"/>
<path d="M109.851 81.1673C110.69 81.0011 111.484 80.6563 112.178 80.1563C112.872 79.6563 113.45 79.0128 113.873 78.2695L115.232 75.7725L118.171 78.8638C118.171 78.8638 117.748 81.5682 115.803 83.0701C114.674 83.9534 113.376 84.5963 111.989 84.959L109.851 81.1673Z" fill="#FB923C"/>
<path d="M113.283 100.84C113.283 100.84 111.57 96.357 111.864 95.8272C112.159 95.2974 107.345 97.5088 105.654 97.4259L103.949 97.3568C103.949 97.3568 105.364 101.291 106.322 101.752C107.28 102.213 113.283 100.84 113.283 100.84Z" fill="url(#paint17_linear_239_4792)"/>
<path d="M103.945 213.183C103.945 213.183 100.549 216.482 98.1491 217.68L95.7534 218.877C95.7534 218.877 100.434 219.776 101.448 223.282C102.461 226.788 100.895 230.764 100.895 230.764C100.895 230.764 107.059 226.369 108.358 223.475C109.658 220.582 103.945 213.183 103.945 213.183Z" fill="#FB923C"/>
<path d="M110.671 309.747C110.671 309.747 114.011 313.041 116.366 314.239L118.72 315.437C118.72 315.437 114.113 316.358 113.127 319.837C112.141 323.315 113.684 327.328 113.684 327.328C113.684 327.328 107.631 322.933 106.354 320.03C105.078 317.128 110.671 309.747 110.671 309.747Z" fill="#FB923C"/>
<path d="M438.819 167.011C438.787 166.988 442.542 165.868 442.542 165.868L446.278 171.673L443.352 173.779C443.352 173.779 439.515 167.49 438.819 167.011Z" fill="url(#paint18_linear_239_4792)"/>
<path d="M305.942 225.406C305.942 225.406 311.931 229.838 318.22 228.631C324.508 227.424 325.043 226.184 325.043 226.184C325.043 226.184 324.651 224.802 324.066 223.144C323.694 221.995 323.476 220.802 323.417 219.596C320.816 220.616 318.021 221.044 315.234 220.849C310.881 220.453 308.932 219.264 308.932 219.264L305.942 225.406Z" fill="#818CF8"/>
<path d="M206.858 314.963C206.936 313.745 207.276 312.558 207.854 311.483C208.432 310.409 209.234 309.471 210.207 308.734L213.487 306.347L208.567 302.763C208.567 302.763 204.821 303.869 203.061 306.909C202.022 308.671 201.352 310.626 201.094 312.654L206.858 314.963Z" fill="#818CF8"/>
<path d="M180.671 326.646C180.671 326.646 189.669 330.921 190.807 330.401C191.945 329.88 186.623 339.454 186.49 342.992L186.361 346.535C186.361 346.535 178.45 342.969 177.649 340.91C176.847 338.85 180.671 326.646 180.671 326.646Z" fill="#FB923C"/>
<path d="M346.521 287.343L333.368 292.572C333.368 292.572 335.759 293.788 335.879 295.977L335.998 298.165L347.594 292.756C347.594 292.756 345.922 289.043 346.521 287.343Z" fill="#FB923C"/>
<path d="M433.401 293.231L428.955 290.31C428.955 290.31 427.79 292.784 426.352 293.535C425.496 293.992 424.593 294.354 423.657 294.613L427.071 297.714C427.071 297.714 432.682 294.714 433.401 293.231Z" fill="#22C55E"/>
<path d="M409.794 98.7941C414.402 97.7436 415.701 95.1084 415.701 95.1084L420.547 96.9512C420.547 96.9512 417.474 101.028 415.171 101.844L412.867 102.655L409.794 98.7941Z" fill="#FB923C"/>
<path d="M440.984 109.105L433.383 112.058C433.383 112.058 440.51 120.664 445.923 120.664C451.337 120.664 453.792 117.96 453.792 117.96C453.792 117.96 441.21 113.039 440.984 109.105Z" fill="#22C55E"/>
<path d="M320.307 83.1623C320.376 83.1623 315.239 79.0667 315.239 79.0667L305.808 85.7607L309.033 90.8515C309.033 90.8515 318.902 83.4618 320.307 83.1623Z" fill="#22C55E"/>
<path d="M263.474 58.6066L255.849 55.0315C255.849 55.0315 256.07 60.1315 254.499 62.26C253.408 63.632 251.997 64.7156 250.39 65.4158L256.444 69.3595C256.444 69.3595 263.248 64.7662 263.474 58.6066Z" fill="#FB923C"/>
<path d="M351.663 134.494C351.663 134.494 353.082 139.438 356.297 141.492C359.513 143.547 359.886 143.547 359.886 143.547L351.98 148.26C351.98 148.26 348.018 145.372 346.669 141.949C345.846 139.805 345.229 137.588 344.826 135.328L351.663 134.494Z" fill="#FB923C"/>
<path d="M386.455 190.111C386.718 189.927 374.642 183.951 374.642 183.951C374.642 183.951 373.371 185.472 372.698 186.31C372.323 186.785 371.896 187.218 371.427 187.6L385.11 195.133C385.11 195.133 384.962 191.166 386.455 190.111Z" fill="#818CF8"/>
<path d="M334.437 132.476L326.734 129.892L316.266 136.66L325.688 141.377L334.437 132.476Z" fill="#22C55E"/>
<path d="M298.948 148.352C298.948 148.352 295.212 148.776 293.83 147.647C293.024 147.017 292.402 146.181 292.028 145.229L288.016 155.254C289.012 156.332 290.182 157.236 291.476 157.93C291.943 158.185 292.466 158.319 292.998 158.319C293.53 158.319 294.054 158.185 294.521 157.93L298.948 148.352Z" fill="#22C55E"/>
<path d="M263.433 30.3328C263.433 30.3328 263.345 25.4401 259.166 22.3949L254.983 19.3542L261.253 14.7886C261.253 14.7886 266.031 16.1707 268.27 20.0545C269.598 22.2971 270.451 24.7889 270.776 27.3751L263.433 30.3328Z" fill="#818CF8"/>
<path d="M332.958 175.47L329.157 168.13C329.157 168.13 325.292 169.89 323.366 173.36C321.44 176.829 323.288 182.334 323.288 182.334H327.6C327.6 182.334 326.734 178.81 328.659 177.437C329.974 176.549 331.427 175.884 332.958 175.47Z" fill="url(#paint19_linear_239_4792)"/>
<path d="M293.305 109.731C293.305 109.731 287.007 111.238 286.353 110.749C285.698 110.261 287.795 117.07 287.403 119.337L287.007 121.608C287.007 121.608 292.535 120.406 293.305 119.203C294.074 118.001 293.305 109.731 293.305 109.731Z" fill="url(#paint20_linear_239_4792)"/>
<path d="M278.41 125.884C278.479 125.884 273.342 121.788 273.342 121.788L263.916 128.478L267.141 133.573C267.141 133.573 277.005 126.183 278.41 125.884Z" fill="#FB923C"/>
<path d="M182.104 197.837L174.041 194.059C174.041 194.059 174.281 199.445 172.623 201.698C171.465 203.146 169.973 204.291 168.273 205.033L174.677 209.203C174.677 209.203 181.869 204.347 182.104 197.837Z" fill="#FB923C"/>
<path d="M305.269 238.697C305.269 238.697 306.688 243.64 309.904 245.695C313.12 247.75 313.493 247.75 313.493 247.75L305.569 252.468C305.569 252.468 301.607 249.574 300.261 246.151C299.431 244.01 298.805 241.795 298.391 239.536L305.269 238.697Z" fill="#FB923C"/>
<path d="M294.337 265.151C294.599 264.967 282.524 258.987 282.524 258.987C282.524 258.987 281.253 260.512 280.58 261.345C280.205 261.822 279.779 262.257 279.308 262.64L293.01 270.168C293.01 270.168 292.844 266.215 294.337 265.151Z" fill="#FB923C"/>
<path d="M230.662 197.021C230.589 195.869 230.267 194.746 229.72 193.729C229.173 192.712 228.414 191.826 227.493 191.129L224.392 188.872L229.045 185.481C229.045 185.481 232.593 186.527 234.251 189.392C235.23 191.059 235.857 192.91 236.094 194.828L230.662 197.021Z" fill="url(#paint21_linear_239_4792)"/>
<path d="M253.44 268.169L249.639 260.829C249.639 260.829 245.778 262.589 243.848 266.058C241.917 269.528 243.769 275.028 243.769 275.028H248.086C248.086 275.028 247.216 271.499 249.141 270.127C250.457 269.243 251.909 268.581 253.44 268.169V268.169Z" fill="#FB923C"/>
<path d="M261.861 154.231C261.861 154.231 252.541 156.461 251.574 155.742C250.606 155.023 253.707 165.094 253.126 168.448L252.541 171.807C252.541 171.807 260.696 170.029 261.861 168.25C263.027 166.472 261.861 154.231 261.861 154.231Z" fill="url(#paint22_linear_239_4792)"/>
<path d="M282.754 413.319L280.999 411.9L277.737 414.203L278.857 415.968C278.857 415.968 282.271 413.42 282.754 413.319Z" fill="#22C55E"/>
<path d="M97.2414 377.739L94.6016 376.499C94.6016 376.499 94.6799 378.268 94.1409 379.006C93.7627 379.48 93.2739 379.855 92.7173 380.097L94.8135 381.48C94.8135 381.48 97.1631 379.872 97.2414 377.739Z" fill="#FB923C"/>
<path d="M273.89 428.896C273.89 428.896 274.383 430.605 275.498 431.319C275.879 431.608 276.296 431.846 276.738 432.028L273.996 433.664C273.996 433.664 272.614 432.66 272.153 431.475C271.865 430.73 271.648 429.958 271.504 429.172L273.89 428.896Z" fill="#FB923C"/>
<path d="M372.961 352.824C373.053 352.759 368.87 350.69 368.87 350.69C368.87 350.69 368.432 351.216 368.197 351.506C368.063 351.677 367.908 351.832 367.737 351.967L372.496 354.583C372.496 354.583 372.445 353.201 372.961 352.824Z" fill="#22C55E"/>
<path d="M75.6988 302.634L73.0313 301.74L69.4102 304.081L72.6674 305.716L75.6988 302.634Z" fill="#22C55E"/>
<path d="M387.261 232.27C387.261 232.27 385.58 232.473 384.958 231.929C384.592 231.617 384.313 231.215 384.147 230.764L382.341 235.596C382.785 236.108 383.311 236.543 383.898 236.882C384.107 237.008 384.346 237.075 384.589 237.075C384.833 237.075 385.072 237.008 385.28 236.882L387.261 232.27Z" fill="#818CF8"/>
<path d="M5.94773 221.692C5.877 220.6 5.57215 219.535 5.05388 218.571C4.5356 217.607 3.81601 216.766 2.94392 216.104L0 213.962L4.41358 210.737C4.41358 210.737 7.77674 211.723 9.35236 214.445C10.2855 216.024 10.8845 217.777 11.1123 219.596L5.94773 221.692Z" fill="#FB923C"/>
<path d="M36.7552 330.014L32.8807 322.532C32.8807 322.532 28.9416 324.329 26.979 327.862C25.0164 331.396 26.8961 337.007 26.8961 337.007H31.2958C31.2958 337.007 30.4067 333.391 32.3739 332.009C33.7142 331.106 35.1947 330.432 36.7552 330.014V330.014Z" fill="url(#paint23_linear_239_4792)"/>
<path d="M454.999 193.667C454.999 193.667 448.692 195.179 448.033 194.69C447.374 194.202 449.48 201.02 449.084 203.296L448.692 205.568C448.692 205.568 454.221 204.365 454.999 203.163C455.778 201.96 454.999 193.667 454.999 193.667Z" fill="#818CF8"/>
<path d="M225.088 372.91L232.846 369.326C232.846 369.326 232.62 374.426 234.228 376.555C235.348 377.93 236.785 379.013 238.416 379.71L232.252 383.659C232.252 383.659 225.318 379.075 225.088 372.91Z" fill="#818CF8"/>
<path d="M96.251 205.826C96.251 205.826 102.867 210.723 109.837 209.405C116.808 208.088 117.384 206.696 117.384 206.696C117.384 206.696 116.951 205.162 116.306 203.333C115.891 202.055 115.65 200.727 115.587 199.385C112.708 200.513 109.614 200.985 106.529 200.767C101.715 200.306 99.5589 199.012 99.5589 199.012L96.251 205.826Z" fill="#CF460D"/>
<path d="M255.692 192.096C255.692 192.096 257.291 197.565 260.912 199.841C264.533 202.117 264.953 202.112 264.953 202.112L256.029 207.327C256.029 207.327 251.569 204.13 250.04 200.343C249.105 197.976 248.4 195.524 247.934 193.022L255.692 192.096Z" fill="#22C55E"/>
<path d="M207.567 226.875C207.567 226.875 199.109 224.844 195.446 218.302C191.783 211.759 192.52 210.35 192.52 210.35C192.52 210.35 194.055 209.654 195.976 208.94C197.291 208.406 198.53 207.701 199.661 206.844C200.696 209.948 202.412 212.781 204.683 215.136C208.304 218.744 210.838 219.596 210.838 219.596L207.567 226.875Z" fill="#818CF8"/>
<path d="M195.395 119.005L199.602 110.869C199.602 110.869 203.872 112.818 206.005 116.656C208.138 120.493 206.093 126.584 206.093 126.584H201.32C201.32 126.584 202.283 122.682 200.15 121.166C198.695 120.188 197.089 119.458 195.395 119.005V119.005Z" fill="url(#paint24_linear_239_4792)"/>
<path d="M222.715 172.926C222.641 172.926 228.326 168.393 228.326 168.393L238.752 175.797L235.168 181.436C235.168 181.436 224.268 173.258 222.715 172.926Z" fill="#FB923C"/>
<path d="M219.499 248.266C219.499 248.266 217.841 254.043 214.082 256.448C210.322 258.853 209.885 258.848 209.885 258.848L219.149 264.377C219.149 264.377 223.784 260.995 225.36 257.006C226.329 254.5 227.06 251.908 227.543 249.266L219.499 248.266Z" fill="#FB923C"/>
<path d="M221.577 232.957L230.096 230.091L241.673 237.582L231.252 242.802L221.577 232.957Z" fill="#22C55E"/>
<path d="M260.834 250.514C260.834 250.514 264.98 250.975 266.496 249.736C267.388 249.038 268.075 248.113 268.486 247.059L272.928 258.148C271.825 259.341 270.531 260.342 269.099 261.11C267.109 262.032 265.731 261.11 265.731 261.11L260.834 250.514Z" fill="#818CF8"/>
<path d="M285.74 195.814C285.822 194.54 286.178 193.298 286.783 192.173C287.388 191.048 288.228 190.067 289.246 189.295L292.678 186.798L287.532 183.048C287.532 183.048 283.607 184.205 281.769 187.374C280.679 189.217 279.979 191.263 279.709 193.386L285.74 195.814Z" fill="#818CF8"/>
<path d="M330.723 153.392C330.723 153.392 324.734 157.82 318.441 156.617C312.148 155.415 311.622 154.176 311.622 154.176C311.622 154.176 312.009 152.794 312.594 151.135C312.968 149.979 313.186 148.778 313.244 147.564C315.845 148.588 318.642 149.017 321.431 148.822C325.784 148.426 327.733 147.233 327.733 147.233L330.723 153.392Z" fill="#CF460D"/>
<path d="M368.031 165.03C368.031 165.03 366.585 169.973 363.314 172.028C360.043 174.083 359.66 174.083 359.66 174.083L367.727 178.8C367.727 178.8 371.759 175.907 373.127 172.484C373.966 170.344 374.598 168.129 375.016 165.868L368.031 165.03Z" fill="#FB923C"/>
<path d="M67.0605 168.458C67.0605 168.458 73.0497 172.89 79.3384 171.683C85.6271 170.475 86.1523 169.264 86.1523 169.264C86.1523 169.264 85.7607 167.882 85.1756 166.223C84.8021 165.069 84.5837 163.869 84.526 162.657C81.9239 163.678 79.1273 164.106 76.3392 163.91C71.9855 163.514 70.0367 162.326 70.0367 162.326L67.0605 168.458Z" fill="#818CF8"/>
<path d="M109.188 164.827L105.387 157.488C105.387 157.488 101.521 159.248 99.5957 162.717C97.6699 166.186 99.5128 171.683 99.5128 171.683H103.825C103.825 171.683 102.959 168.158 104.885 166.785C106.201 165.9 107.655 165.239 109.188 164.827Z" fill="url(#paint25_linear_239_4792)"/>
<path d="M394.237 144.639C394.301 144.639 389.169 140.543 389.169 140.543L379.743 147.237L382.968 152.333C382.968 152.333 392.831 144.962 394.237 144.639Z" fill="#818CF8"/>
<path d="M348.474 250.003C348.474 250.003 349.893 254.946 353.109 257.001C356.325 259.056 356.698 259.051 356.698 259.051L348.755 263.783C348.755 263.783 344.793 260.894 343.448 257.471C342.618 255.328 341.992 253.111 341.578 250.851L348.474 250.003Z" fill="#22C55E"/>
<path d="M399.396 168.536L391.698 165.947L381.231 172.719L390.648 177.432L399.396 168.536Z" fill="#22C55E"/>
<path d="M392.454 203.499C392.454 203.499 388.717 203.923 387.335 202.794C386.529 202.163 385.907 201.328 385.534 200.375L381.521 210.382C382.518 211.46 383.687 212.365 384.981 213.059C385.448 213.314 385.971 213.448 386.504 213.448C387.036 213.448 387.559 213.314 388.026 213.059L392.454 203.499Z" fill="#818CF8"/>
<path d="M283.169 321.021C283.094 319.87 282.772 318.748 282.225 317.732C281.678 316.716 280.919 315.83 279.999 315.133L276.885 312.871L281.538 309.485C281.538 309.485 285.086 310.526 286.749 313.392C287.727 315.059 288.354 316.909 288.592 318.828L283.169 321.021Z" fill="url(#paint26_linear_239_4792)"/>
<path d="M278.378 151.95C278.378 151.95 276.936 156.894 273.66 158.949C270.385 161.003 270.007 161.003 270.007 161.003L278.069 165.721C278.069 165.721 282.1 162.828 283.473 159.405C284.318 157.267 284.955 155.053 285.376 152.794L278.378 151.95Z" fill="#FB923C"/>
<path d="M243.926 220.868L247.791 213.529C247.791 213.529 251.721 215.288 253.684 218.758C255.646 222.227 253.767 227.732 253.767 227.732H249.376C249.376 227.732 250.261 224.203 248.321 222.821C246.973 221.934 245.488 221.274 243.926 220.868V220.868Z" fill="#FB923C"/>
<path d="M199.707 131.292C199.707 131.292 206.475 132.886 207.18 132.37C207.885 131.854 205.632 139.051 206.051 141.446L206.475 143.847C206.475 143.847 200.551 142.575 199.707 141.308C198.864 140.041 199.707 131.292 199.707 131.292Z" fill="#818CF8"/>
<path d="M206.927 151.015C208.945 151.821 215.395 154.65 215.395 154.65L208.406 164.274L201.149 160.69L206.927 151.015Z" fill="url(#paint27_linear_239_4792)"/>
<path d="M286.463 197.482L267.404 204.932C267.404 204.932 270.868 206.664 271.043 209.783L271.218 212.902L288.025 205.194C288.025 205.194 285.597 199.91 286.463 197.482Z" fill="url(#paint28_linear_239_4792)"/>
<path d="M193.833 189.056L194.935 182.491L204.457 185.025C204.457 185.025 202.444 187.789 202.444 190.152V192.534L193.833 191.078V189.056Z" fill="#FB923C"/>
<path d="M310.438 183.011L314.511 182.316C314.265 183.166 314.265 184.069 314.511 184.919C314.727 185.593 315.127 186.193 315.667 186.651L310.438 187.531V183.011Z" fill="#22C55E"/>
<path d="M123.11 264.58C123.11 264.58 126.068 267.45 128.178 268.496L130.265 269.541C130.265 269.541 126.174 270.325 125.303 273.37C124.433 276.415 125.773 279.898 125.773 279.898C125.773 279.898 120.401 276.07 119.273 273.545C118.144 271.02 123.11 264.58 123.11 264.58Z" fill="#22C55E"/>
<path d="M252.514 260.138L260.272 256.563C260.272 256.563 260.046 261.663 261.654 263.792C262.772 265.167 264.208 266.25 265.837 266.948L259.678 270.896C259.678 270.896 252.739 266.321 252.514 260.138Z" fill="url(#paint29_linear_239_4792)"/>
<path d="M249.445 247.133L247.713 237.78H256.204L254.992 246.414L249.445 247.133Z" fill="#CF460D"/>
<path d="M176.912 148.385C176.912 148.385 185.983 147.178 190.627 140.751C195.271 134.324 194.686 132.771 194.686 132.771C194.686 132.771 193.17 131.882 191.258 130.928C189.956 130.231 188.754 129.362 187.683 128.344C186.208 131.47 184.064 134.233 181.404 136.439C177.174 139.806 174.428 140.424 174.428 140.424L176.912 148.385Z" fill="#CF460D"/>
<path d="M282.303 132.822C282.271 132.822 286.03 131.679 286.03 131.679L289.766 137.484L286.836 139.59C286.836 139.59 283.017 133.301 282.303 132.822Z" fill="url(#paint30_linear_239_4792)"/>
<path d="M201.14 243.212L187.241 248.74C187.241 248.74 189.765 250.03 189.894 252.343L190.019 254.647L202.278 248.925C202.278 248.925 200.509 245.009 201.14 243.212Z" fill="url(#paint31_linear_239_4792)"/>
<path d="M235.209 144.727C235.467 144.542 223.397 138.567 223.397 138.567C223.397 138.567 222.125 140.087 221.453 140.926C221.076 141.402 220.648 141.834 220.177 142.216L233.864 149.748C233.864 149.748 233.712 145.791 235.209 144.727Z" fill="#FB923C"/>
<path d="M222.909 118.499C222.909 118.499 221.462 123.442 218.191 125.497C214.92 127.551 214.538 127.551 214.538 127.551L222.605 132.269C222.605 132.269 226.636 129.376 228.004 125.953C228.843 123.813 229.476 121.597 229.893 119.337L222.909 118.499Z" fill="#818CF8"/>
<path d="M324.338 106.202C324.338 106.202 324.121 112.956 327.314 116.798C330.507 120.641 331 120.811 331 120.811L319.192 123.516C319.192 123.516 315.4 118.31 315.096 113.486C314.921 110.474 315.03 107.452 315.423 104.461L324.338 106.202Z" fill="#FB923C"/>
<path d="M254.274 122.004L246.575 119.415L236.108 126.188L245.525 130.901L254.274 122.004Z" fill="#22C55E"/>
<path d="M135.835 203.932C135.835 203.932 137.36 209.161 140.82 211.331C144.28 213.501 144.681 213.501 144.681 213.501L136.157 218.486C136.157 218.486 131.896 215.431 130.449 211.815C129.555 209.552 128.881 207.209 128.436 204.817L135.835 203.932Z" fill="#22C55E"/>
<path d="M108.206 273.886L109.985 265.782C109.985 265.782 105.838 264.589 102.111 265.976C98.3841 267.362 96.2603 272.776 96.2603 272.776L99.6188 275.604C99.6188 275.604 101.217 272.338 103.604 272.559C105.2 272.747 106.755 273.196 108.206 273.886V273.886Z" fill="#FB923C"/>
<path d="M199.049 175.032C199.049 175.032 192.276 176.626 191.571 176.11C190.866 175.594 193.119 182.79 192.7 185.19L192.276 187.586C192.276 187.586 198.201 186.319 199.049 185.048C199.896 183.776 199.049 175.032 199.049 175.032Z" fill="#818CF8"/>
<path d="M117.78 241.48L136.83 248.929C136.83 248.929 133.365 250.662 133.19 253.781L133.02 256.9L116.209 249.187C116.209 249.187 118.646 243.903 117.78 241.48Z" fill="url(#paint32_linear_239_4792)"/>
<path d="M207.664 235.555L206.563 228.99L197.04 231.524C197.04 231.524 199.053 234.288 199.053 236.656V239.033L207.664 237.564V235.555Z" fill="#FB923C"/>
<path d="M93.8047 227L89.7321 226.309C89.9783 227.157 89.9783 228.058 89.7321 228.907C89.5165 229.581 89.1158 230.182 88.5757 230.639L93.8047 231.519V227Z" fill="#22C55E"/>
<path d="M208.664 262.774C208.664 262.774 205.535 265.81 203.329 266.92L201.117 268.026C201.117 268.026 205.443 268.855 206.365 272.075C207.286 275.296 205.839 278.986 205.839 278.986C205.839 278.986 211.515 274.936 212.713 272.269C213.911 269.601 208.664 262.774 208.664 262.774Z" fill="#818CF8"/>
<path d="M147.482 314.009L139.281 310.226C139.281 310.226 139.525 315.617 137.834 317.87C136.652 319.324 135.135 320.468 133.412 321.205L139.926 325.374C139.926 325.374 147.242 320.519 147.482 314.009Z" fill="url(#paint33_linear_239_4792)"/>
<path d="M158.078 302.445L159.907 292.558H150.932L152.213 301.685L158.078 302.445Z" fill="#CF460D"/>
<path d="M221.536 199.975C221.536 199.975 221.84 206.268 218.062 210.212C214.284 214.155 213.16 213.948 213.16 213.948C213.16 213.948 212.372 213.026 211.488 211.856C210.854 211.058 210.114 210.35 209.29 209.751C211.224 208.365 212.831 206.572 213.998 204.499C215.754 201.214 215.841 199.279 215.841 199.279L221.536 199.975Z" fill="#22C55E"/>
<path d="M110.57 164.468C110.602 164.468 106.847 163.325 106.847 163.325L103.111 169.135L106.041 171.236C106.041 171.236 109.833 164.947 110.57 164.468Z" fill="url(#paint34_linear_239_4792)"/>
<path d="M201.518 293.553L215.418 299.082C215.418 299.082 212.888 300.372 212.764 302.685L212.635 304.988L200.38 299.298C200.38 299.298 202.149 295.355 201.518 293.553Z" fill="url(#paint35_linear_239_4792)"/>
<path d="M159.303 190.77C159.027 190.576 171.788 184.26 171.788 184.26C171.788 184.26 173.129 185.868 173.843 186.752C174.238 187.263 174.689 187.726 175.188 188.134L160.722 196.1C160.722 196.1 160.883 191.898 159.303 190.77Z" fill="#EC4899"/>
<path d="M158.575 147.855C158.575 147.855 160.1 153.079 163.56 155.254C167.02 157.428 167.416 157.424 167.416 157.424L158.893 162.408C158.893 162.408 154.632 159.354 153.185 155.733C152.293 153.471 151.62 151.129 151.177 148.739L158.575 147.855Z" fill="#FB923C"/>
<path d="M96.4031 190.286C96.4031 190.286 94.9841 195.229 91.7684 197.284C88.5526 199.339 88.1794 199.325 88.1794 199.325L96.1036 204.043C96.1036 204.043 100.066 201.149 101.411 197.726C102.241 195.585 102.867 193.37 103.281 191.111L96.4031 190.286Z" fill="#FB923C"/>
<path d="M157.083 171.894L165.223 169.162L176.285 176.317L166.329 181.302L157.083 171.894Z" fill="url(#paint36_linear_239_4792)"/>
<path d="M152.955 204.932C152.955 204.932 156.908 205.393 158.368 204.19C159.219 203.521 159.876 202.637 160.271 201.629L164.514 212.225C163.46 213.364 162.224 214.32 160.856 215.054C158.953 215.947 157.631 215.054 157.631 215.054L152.955 204.932Z" fill="#818CF8"/>
<path d="M447.923 271.463C447.923 271.463 447.172 274.024 445.476 275.088C443.781 276.153 443.587 276.153 443.587 276.153L447.761 278.599C447.761 278.599 449.853 277.097 450.562 275.328C451 274.218 451.329 273.069 451.544 271.896L447.923 271.463Z" fill="#FB923C"/>
<path d="M209.134 397.429L211.138 393.624C212.389 394.225 213.447 395.165 214.192 396.337C215.206 398.134 214.234 400.986 214.234 400.986H211.958C211.958 400.986 212.418 399.143 211.4 398.447C210.705 397.988 209.939 397.644 209.134 397.429V397.429Z" fill="#FB923C"/>
<path d="M89.7779 338.919C89.7779 338.919 93.0996 339.703 93.4636 339.449C93.8275 339.196 92.7034 342.725 92.9107 343.9L93.1181 345.074C93.1181 345.074 90.211 344.452 89.7964 343.83C89.3817 343.208 89.7779 338.919 89.7779 338.919Z" fill="#818CF8"/>
<path d="M141.492 349.658C142.483 350.05 145.639 351.437 145.639 351.437L142.211 356.154L138.673 354.399L141.492 349.658Z" fill="#3B82F6"/>
<path d="M243.825 396.047L233.952 399.908C233.952 399.908 235.748 400.802 235.836 402.419L235.928 404.036L244.635 400.041C244.635 400.041 243.378 397.277 243.825 396.047Z" fill="#FACC15"/>
<path d="M129.919 361.591L130.458 358.366L135.125 359.605C135.125 359.605 134.14 360.955 134.14 362.12V363.286L129.919 362.581V361.591Z" fill="#FB923C"/>
<path d="M189.443 360.075L191.553 359.716C191.425 360.155 191.425 360.622 191.553 361.061C191.66 361.419 191.868 361.739 192.152 361.982L189.443 362.443V360.075Z" fill="#22C55E"/>
<path d="M136.66 372.892C137.451 373.667 138.329 374.348 139.276 374.924L140.359 375.463C140.359 375.463 138.24 375.868 137.788 377.448C137.337 379.028 138.046 380.83 138.046 380.83C138.046 380.83 135.282 378.844 134.674 377.536C134.066 376.227 136.66 372.892 136.66 372.892Z" fill="#22C55E"/>
<path d="M181.187 409.675L185.204 407.832C185.204 407.832 185.085 410.476 185.914 411.577C186.493 412.291 187.238 412.853 188.084 413.213L184.891 415.259C184.891 415.259 181.302 412.867 181.187 409.675Z" fill="url(#paint37_linear_239_4792)"/>
<path d="M144.551 416.401L143.653 411.554H148.053L147.426 416.028L144.551 416.401Z" fill="#CF460D"/>
<path d="M74.1094 366.101C74.1094 366.101 80.5593 368.925 86.2168 366.529C91.8742 364.134 92.077 362.876 92.077 362.876C92.077 362.876 91.432 361.683 90.552 360.291C89.9705 359.31 89.5227 358.254 89.2206 357.154C87.0013 358.63 84.4849 359.6 81.8493 359.997C77.7029 360.536 75.6527 359.845 75.6527 359.845L74.1094 366.101Z" fill="#CF460D"/>
<path d="M465.135 190.378L467.065 189.788L469 192.797L467.484 193.884C467.484 193.884 465.503 190.627 465.135 190.378Z" fill="#FB923C"/>
<path d="M141.783 388.487L130.905 392.822C130.905 392.822 132.882 393.826 132.978 395.637L133.08 397.448L142.672 392.974C142.672 392.974 141.285 389.892 141.783 388.487Z" fill="#EC4899"/>
<path d="M163.325 345.125C163.459 345.028 157.207 341.932 157.207 341.932C157.207 341.932 156.548 342.72 156.198 343.153C156.003 343.4 155.782 343.625 155.539 343.826L162.63 347.723C162.63 347.723 162.551 345.678 163.325 345.125Z" fill="#FB923C"/>
<path d="M410.582 172.452C410.582 172.452 409.836 175.013 408.141 176.078C406.445 177.142 406.247 177.142 406.247 177.142L410.426 179.584C410.426 179.584 412.517 178.086 413.222 176.313C413.66 175.204 413.99 174.056 414.208 172.885L410.582 172.452Z" fill="#FB923C"/>
<path d="M422.201 321.085C422.201 321.085 422.939 323.647 424.606 324.711C426.274 325.775 426.449 325.775 426.449 325.775L422.344 328.217C422.344 328.217 420.29 326.72 419.58 324.946C419.151 323.836 418.827 322.689 418.613 321.518L422.201 321.085Z" fill="#FB923C"/>
<path d="M434.926 148.79L430.936 147.449L425.514 150.96L430.393 153.402L434.926 148.79Z" fill="#818CF8"/>
<path d="M382.571 328.001C382.571 328.001 380.636 328.222 379.918 327.637C379.504 327.309 379.186 326.876 378.996 326.384L376.914 331.576C377.431 332.132 378.036 332.599 378.706 332.958C378.948 333.091 379.22 333.16 379.496 333.16C379.772 333.16 380.044 333.091 380.286 332.958L382.571 328.001Z" fill="#818CF8"/>
<path d="M304.219 124.23C304.219 124.23 302.92 128.68 299.976 130.528C297.032 132.375 296.691 132.37 296.691 132.37L303.947 136.614C303.947 136.614 307.573 134.015 308.803 130.933C309.564 129.007 310.138 127.012 310.517 124.976L304.219 124.23Z" fill="#818CF8"/>
<path d="M314.741 268.284L316.746 264.478C317.999 265.077 319.058 266.018 319.8 267.192C320.814 268.989 319.841 271.836 319.841 271.836H317.566C317.566 271.836 318.026 269.993 317.008 269.297C316.313 268.837 315.548 268.495 314.741 268.284V268.284Z" fill="#FB923C"/>
<path d="M169.642 251.956C169.642 251.956 173.152 252.785 173.516 252.518C173.88 252.251 172.71 255.978 172.931 257.222L173.152 258.461C173.152 258.461 170.079 257.807 169.642 257.148C169.204 256.49 169.642 251.956 169.642 251.956Z" fill="#818CF8"/>
<path d="M346.94 272.453L337.067 276.314C337.067 276.314 338.86 277.212 338.952 278.829L339.039 280.446L347.747 276.452C347.747 276.452 346.493 273.711 346.94 272.453Z" fill="#EC4899"/>
<path d="M195.704 203.568L196.243 200.343L200.91 201.582C200.91 201.582 199.924 202.928 199.924 204.098V205.263L195.704 204.549V203.568Z" fill="url(#paint38_linear_239_4792)"/>
<path d="M295.051 230.911L297.161 230.552C297.033 230.991 297.033 231.458 297.161 231.897C297.272 232.247 297.479 232.558 297.76 232.795L295.051 233.256V230.911Z" fill="#22C55E"/>
<path d="M405.694 372.242C405.694 372.242 409.011 375.467 411.352 376.633L413.715 377.803C413.715 377.803 409.108 378.683 408.154 382.097C407.201 385.511 408.712 389.417 408.712 389.417C408.712 389.417 402.69 385.124 401.424 382.295C400.157 379.466 405.694 372.242 405.694 372.242Z" fill="url(#paint39_linear_239_4792)"/>
<path d="M301.966 263.446L305.988 261.603C305.988 261.603 305.868 264.243 306.698 265.344C307.275 266.058 308.018 266.62 308.863 266.98L305.67 269.025C305.67 269.025 302.086 266.639 301.966 263.446Z" fill="url(#paint40_linear_239_4792)"/>
<path d="M169.619 266.994C169.619 266.994 174.318 266.372 176.727 263.041C179.137 259.71 178.828 258.894 178.828 258.894C178.828 258.894 178.045 258.434 177.055 257.941C176.384 257.577 175.764 257.126 175.212 256.6C174.448 258.219 173.338 259.651 171.959 260.793C169.771 262.539 168.347 262.861 168.347 262.861L169.619 266.994Z" fill="#CF460D"/>
<path d="M317.851 238.485C317.819 238.485 320.376 236.693 320.376 236.693L324.647 240.144L322.96 242.447C322.96 242.447 318.505 238.665 317.851 238.485Z" fill="#CF460D"/>
<path d="M238.559 260.853L231.736 263.566C231.736 263.566 232.975 264.193 233.035 265.326L233.1 266.464L239.089 263.658C239.089 263.658 238.246 261.737 238.559 260.853Z" fill="#3B82F6"/>
<path d="M268.933 215.961C269.067 215.864 262.81 212.768 262.81 212.768C262.81 212.768 262.152 213.556 261.806 213.989C261.611 214.235 261.39 214.459 261.147 214.657L268.233 218.56C268.233 218.56 268.159 216.509 268.933 215.961Z" fill="#CF460D"/>
<path d="M241.162 182.362C241.162 182.362 239.319 184.301 237.333 184.476C235.348 184.652 235.168 184.564 235.168 184.564L237.776 188.641C237.776 188.641 240.319 188.259 241.756 187.001C242.65 186.212 243.466 185.338 244.193 184.394L241.162 182.362Z" fill="#CF460D"/>
<path d="M399.94 231.69C399.94 231.69 400.677 234.251 402.34 235.315C404.003 236.38 404.183 236.38 404.183 236.38L400.078 238.821C400.078 238.821 398.023 237.324 397.314 235.55C396.885 234.441 396.561 233.293 396.346 232.123L399.94 231.69Z" fill="#FB923C"/>
<path d="M253.956 136.429L249.966 135.089L244.543 138.599L249.427 141.041L253.956 136.429Z" fill="#CF460D"/>
<path d="M275.586 185.771C275.586 185.771 273.651 185.992 272.932 185.407C272.521 185.077 272.203 184.645 272.011 184.154L269.933 189.346C270.449 189.904 271.055 190.371 271.725 190.728C271.967 190.86 272.238 190.93 272.513 190.93C272.788 190.93 273.059 190.86 273.301 190.728L275.586 185.771Z" fill="#818CF8"/>
<path d="M312.479 275.706C312.479 275.706 311.318 279.677 308.688 281.326C306.057 282.976 305.758 282.98 305.758 282.98L312.235 286.767C312.235 286.767 315.46 284.464 316.575 281.699C317.251 279.98 317.762 278.2 318.1 276.383L312.479 275.706Z" fill="#22C55E"/>
<path d="M328.553 392.859L330.558 389.058C331.808 389.658 332.865 390.596 333.607 391.767C334.626 393.564 333.649 396.416 333.649 396.416H331.373C331.373 396.416 331.834 394.573 330.816 393.877C330.122 393.417 329.358 393.073 328.553 392.859V392.859Z" fill="#22C55E"/>
<path d="M218.302 352.519C218.302 352.519 221.812 353.344 222.176 353.081C222.54 352.819 221.37 356.541 221.6 357.808L221.821 359.048C221.821 359.048 218.748 358.389 218.311 357.735C217.873 357.08 218.302 352.519 218.302 352.519Z" fill="#818CF8"/>
<path d="M260.908 345.07C261.898 345.461 265.054 346.848 265.054 346.848L261.631 351.566L258.074 349.811L260.908 345.07Z" fill="#3B82F6"/>
<path d="M360.734 397.033L350.856 400.894C350.856 400.894 352.653 401.787 352.741 403.405L352.833 405.022L361.54 401.027C361.54 401.027 360.301 398.286 360.734 397.033Z" fill="#EC4899"/>
<path d="M249.353 357.002L249.892 353.777L254.559 355.021C254.559 355.021 253.573 356.366 253.573 357.532V358.73L249.353 358.02V357.002Z" fill="#FB923C"/>
<path d="M326.37 341.02L328.48 340.661C328.351 341.1 328.351 341.567 328.48 342.006C328.589 342.357 328.797 342.669 329.079 342.905L326.37 343.365V341.02Z" fill="#22C55E"/>
<path d="M256.075 368.303C256.867 369.078 257.745 369.76 258.692 370.335L259.774 370.874C259.774 370.874 257.655 371.279 257.204 372.86C256.752 374.44 257.462 376.241 257.462 376.241C257.462 376.241 254.697 374.256 254.094 372.947C253.49 371.639 256.075 368.303 256.075 368.303Z" fill="#22C55E"/>
<path d="M300.602 405.091L304.62 403.248C304.62 403.248 304.504 405.888 305.329 406.989C305.908 407.703 306.653 408.264 307.499 408.624L304.306 410.67C304.306 410.67 300.722 408.279 300.602 405.091Z" fill="url(#paint41_linear_239_4792)"/>
<path d="M263.967 411.812L263.068 406.966H267.468L266.842 411.439L263.967 411.812Z" fill="#CF460D"/>
<path d="M203.25 375.283C203.25 375.283 207.696 374.693 209.972 371.542C212.248 368.391 211.962 367.631 211.962 367.631C211.962 367.631 211.22 367.17 210.285 366.709C209.645 366.369 209.054 365.943 208.53 365.442C207.806 366.975 206.756 368.33 205.452 369.414C203.379 371.063 202.034 371.367 202.034 371.367L203.25 375.283Z" fill="#22C55E"/>
<path d="M300.188 323.089L302.113 322.5L304.048 325.508L302.533 326.595C302.533 326.595 300.556 323.338 300.188 323.089Z" fill="#EC4899"/>
<path d="M282.741 340.536C282.874 340.44 276.622 337.344 276.622 337.344C276.622 337.344 275.964 338.132 275.613 338.565C275.419 338.812 275.198 339.038 274.955 339.237L282.045 343.139C282.045 343.139 281.953 341.089 282.741 340.536Z" fill="#FB923C"/>
<path d="M237.375 311.378C237.375 311.378 236.624 313.94 234.928 315.004C233.233 316.068 233.04 316.068 233.04 316.068L237.218 318.51C237.218 318.51 239.305 317.013 240.015 315.239C240.452 314.13 240.782 312.983 241.001 311.811L237.375 311.378Z" fill="#FB923C"/>
<path d="M358.499 334.98C358.499 334.98 359.688 339.127 362.378 340.84C365.069 342.554 365.382 342.559 365.382 342.559L358.748 346.503C358.748 346.503 355.431 344.084 354.307 341.223C353.611 339.434 353.087 337.582 352.74 335.694L358.499 334.98Z" fill="#22C55E"/>
<path d="M289.398 310.355C289.398 310.355 287.458 310.572 286.744 309.987C286.331 309.659 286.013 309.226 285.823 308.734L283.745 313.931C284.262 314.487 284.868 314.954 285.537 315.313C285.779 315.445 286.051 315.515 286.327 315.515C286.604 315.515 286.875 315.445 287.117 315.313L289.398 310.355Z" fill="#818CF8"/>
<path d="M120.323 153.31C120.323 153.31 119.576 155.871 117.881 156.935C116.186 158 115.988 158 115.988 158L120.166 160.446C120.166 160.446 122.253 158.949 122.963 157.175C123.4 156.065 123.731 154.916 123.949 153.743L120.323 153.31Z" fill="#22C55E"/>
<path d="M139.806 281.068L141.925 277.051C143.247 277.684 144.364 278.675 145.15 279.912C146.224 281.815 145.192 284.828 145.192 284.828H142.787C142.787 284.828 143.271 282.897 142.197 282.146C141.465 281.658 140.657 281.294 139.806 281.068V281.068Z" fill="#FB923C"/>
<path d="M25.1131 214.478C25.1131 214.478 28.4348 215.256 28.7988 215.003C29.1628 214.749 28.0386 218.278 28.2459 219.453L28.4533 220.628C28.4533 220.628 25.5462 220.006 25.1316 219.384C24.7169 218.762 25.1131 214.478 25.1131 214.478Z" fill="#818CF8"/>
<path d="M76.8275 225.198C77.8134 225.59 80.9738 226.977 80.9738 226.977L77.5462 231.694L73.9895 229.939L76.8275 225.198Z" fill="#EC4899"/>
<path d="M173.843 285.477L163.404 289.559C163.404 289.559 165.302 290.508 165.398 292.217L165.495 293.922L174.709 289.702C174.709 289.702 173.369 286.809 173.843 285.477Z" fill="url(#paint42_linear_239_4792)"/>
<path d="M65.2729 237.131L65.812 233.906L70.4882 235.154C70.4882 235.154 69.5022 236.504 69.5022 237.67V238.835L65.2822 238.126L65.2729 237.131Z" fill="#FB923C"/>
<path d="M124.778 235.615L126.888 235.256C126.76 235.695 126.76 236.162 126.888 236.601C126.993 236.96 127.201 237.28 127.487 237.522L124.778 237.983V235.615Z" fill="#22C55E"/>
<path d="M71.9947 248.432C72.7938 249.208 73.6796 249.89 74.6346 250.464L75.7172 251.003C75.7172 251.003 73.5934 251.408 73.1465 252.988C72.6996 254.568 73.3999 256.37 73.3999 256.37C73.3999 256.37 70.6356 254.384 70.0321 253.076C69.4286 251.767 71.9947 248.432 71.9947 248.432Z" fill="#818CF8"/>
<path d="M116.522 285.219L120.539 283.376C120.539 283.376 120.42 286.021 121.249 287.122C121.828 287.836 122.573 288.397 123.419 288.758L120.244 290.789C120.244 290.789 116.637 288.407 116.522 285.219Z" fill="#818CF8"/>
<path d="M79.8867 291.941L78.9883 287.094H83.388L82.7569 291.568L79.8867 291.941Z" fill="#CF460D"/>
<path d="M19.1701 255.412C19.1701 255.412 23.6159 254.822 25.8918 251.671C28.1677 248.519 27.8821 247.759 27.8821 247.759C27.8821 247.759 27.1358 247.298 26.2005 246.838C25.5611 246.496 24.9707 246.07 24.4452 245.571C23.724 247.104 22.675 248.459 21.3723 249.542C19.2945 251.191 17.9539 251.495 17.9539 251.495L19.1701 255.412Z" fill="#CF460D"/>
<path d="M114.942 219.859L116.872 219.269L118.807 222.277L117.292 223.369C117.292 223.369 115.31 220.108 114.942 219.859Z" fill="url(#paint43_linear_239_4792)"/>
<path d="M68.286 265.561L61.4722 268.27C61.4722 268.27 62.7115 268.901 62.7714 270.034L62.8359 271.168L68.8251 268.362C68.8251 268.362 67.9774 266.441 68.286 265.561Z" fill="url(#paint44_linear_239_4792)"/>
<path d="M61.5504 185.292C61.5504 185.292 60.804 187.853 59.1086 188.918C57.4132 189.982 57.2197 189.982 57.2197 189.982L61.3937 192.424C61.3937 192.424 63.4853 190.926 64.1948 189.153C64.632 188.044 64.9606 186.897 65.1761 185.725L61.5504 185.292Z" fill="#FB923C"/>
<path d="M170.462 216.859C170.462 216.859 171.24 219.568 173 220.693C174.76 221.817 174.963 221.817 174.963 221.817L170.623 224.401C170.623 224.401 168.453 222.816 167.716 220.941C167.264 219.768 166.922 218.556 166.693 217.32L170.462 216.859Z" fill="url(#paint45_linear_239_4792)"/>
<path d="M91.902 153.379L87.9123 152.043L82.4897 155.549L87.3686 157.99L91.902 153.379Z" fill="#22C55E"/>
<path d="M142.418 157.064C142.418 157.064 140.483 157.285 139.765 156.7C139.352 156.372 139.034 155.939 138.843 155.447L136.752 160.626C137.27 161.183 137.877 161.65 138.548 162.008C138.79 162.14 139.061 162.209 139.336 162.209C139.612 162.209 139.883 162.14 140.124 162.008L142.418 157.064Z" fill="#818CF8"/>
<path d="M329.456 56.6072C329.456 56.6072 330.838 58.9107 330.447 60.8687C330.055 62.8267 329.935 62.9741 329.935 62.9741L334.57 61.592C334.57 61.592 334.897 59.0443 334.082 57.3167C333.566 56.2406 332.949 55.2163 332.239 54.2576L329.456 56.6072Z" fill="#818CF8"/>
<path d="M253.817 84.1482L255.821 80.3474C257.074 80.9461 258.132 81.8848 258.876 83.0564C259.889 84.8531 258.917 87.7049 258.917 87.7049H256.642C256.642 87.7049 257.102 85.8621 256.084 85.1664C255.388 84.7067 254.623 84.3629 253.817 84.1482Z" fill="#FB923C"/>
<path d="M134.462 25.6384C134.462 25.6384 137.784 26.417 138.148 26.1636C138.512 25.9102 137.383 29.4393 137.595 30.6141L137.802 31.7935C137.802 31.7935 134.895 31.1669 134.48 30.545C134.066 29.923 134.462 25.6384 134.462 25.6384Z" fill="#818CF8"/>
<path d="M286.016 88.2944L276.143 92.1552C276.143 92.1552 277.935 93.0766 278.028 94.666L278.115 96.2831L286.823 92.2888C286.823 92.2888 285.569 89.5614 286.016 88.2944Z" fill="url(#paint46_linear_239_4792)"/>
<path d="M174.608 48.2728L175.147 45.0479L179.814 46.2918C179.814 46.2918 178.828 47.637 178.828 48.8026V49.9728L174.608 49.2679V48.2728Z" fill="#FB923C"/>
<path d="M234.127 46.7573L236.237 46.3979C236.109 46.8372 236.109 47.304 236.237 47.7432C236.342 48.1023 236.55 48.4227 236.836 48.6646L234.127 49.1253V46.7573Z" fill="#22C55E"/>
<path d="M196.349 57.8879C197.139 58.6631 198.015 59.3449 198.961 59.9197L200.044 60.4587C200.044 60.4587 197.924 60.8641 197.473 62.4443C197.021 64.0246 197.731 65.8259 197.731 65.8259C197.731 65.8259 194.967 63.8403 194.363 62.5319C193.76 61.2235 196.349 57.8879 196.349 57.8879Z" fill="#22C55E"/>
<path d="M220.941 65.1395L224.963 63.2966C224.963 63.2966 224.844 65.9365 225.673 67.0422C226.252 67.7547 226.995 68.3159 227.838 68.6777L224.645 70.7232C224.645 70.7232 221.061 68.3322 220.941 65.1395Z" fill="url(#paint47_linear_239_4792)"/>
<path d="M189.236 103.083L188.337 98.2366H192.737L192.106 102.71L189.236 103.083Z" fill="#CF460D"/>
<path d="M134.669 67.8346C134.669 67.8346 138.254 61.3525 137.517 54.405C136.779 47.4576 135.821 46.8586 135.821 46.8586C135.821 46.8586 134.739 47.2595 133.449 47.8722C132.574 48.2532 131.637 48.4702 130.684 48.5126C131.408 51.4612 131.657 54.5063 131.421 57.5332C130.993 62.3108 130.039 64.4438 130.039 64.4438L134.669 67.8346Z" fill="#CF460D"/>
<path d="M234.915 11.1905L236.84 10.6008L238.775 13.6092L237.264 14.6965C237.264 14.6965 235.283 11.4393 234.915 11.1905Z" fill="url(#paint48_linear_239_4792)"/>
<path d="M177.635 76.7031L170.821 79.4121C170.821 79.4121 172.06 80.0432 172.12 81.1766L172.185 82.3099L178.174 79.5042C178.174 79.5042 177.322 77.5831 177.635 76.7031Z" fill="url(#paint49_linear_239_4792)"/>
<path d="M208.009 31.8072C208.143 31.7105 201.887 28.6145 201.887 28.6145C201.887 28.6145 201.228 29.4023 200.882 29.8354C200.687 30.082 200.466 30.3074 200.223 30.508L207.318 34.3918C207.318 34.3918 207.235 32.36 208.009 31.8072Z" fill="#FB923C"/>
<path d="M320.192 11.1768C320.192 11.1768 319.445 13.7383 317.75 14.8025C316.055 15.8668 315.856 15.8668 315.856 15.8668L320.035 18.3131C320.035 18.3131 322.127 16.8112 322.832 15.0421C323.269 13.9322 323.599 12.7828 323.817 11.6098L320.192 11.1768Z" fill="#22C55E"/>
<path d="M285.049 18.6587C285.049 18.6587 285.781 21.2202 287.449 22.2845C289.117 23.3487 289.292 23.3487 289.292 23.3487L285.187 25.7904C285.187 25.7904 283.137 24.2931 282.423 22.5194C281.993 21.4099 281.669 20.2622 281.455 19.0918L285.049 18.6587Z" fill="#FB923C"/>
<path d="M297.751 64.0521L293.761 62.7114L288.338 66.2174L293.217 68.6638L297.751 64.0521Z" fill="#818CF8"/>
<path d="M214.662 1.62169C214.662 1.62169 212.727 1.83822 212.008 1.25773C211.596 0.926744 211.278 0.49293 211.087 0L209.009 5.19678C209.525 5.75468 210.131 6.2219 210.801 6.5789C211.043 6.71117 211.314 6.7805 211.589 6.7805C211.864 6.7805 212.135 6.71117 212.377 6.5789L214.662 1.62169Z" fill="#818CF8"/>
<path d="M357.864 75.7678C357.864 75.7678 357.113 78.3294 355.417 79.3936C353.722 80.4578 353.528 80.4578 353.528 80.4578L357.707 82.9042C357.707 82.9042 359.794 81.4069 360.503 79.6332C360.941 78.5247 361.271 77.3769 361.489 76.2055L357.864 75.7678Z" fill="#22C55E"/>
<path d="M382.009 195.446L384.013 191.645C385.265 192.243 386.322 193.182 387.063 194.354C388.081 196.151 387.105 199.003 387.105 199.003H384.833C384.833 199.003 385.294 197.16 384.276 196.464C383.58 196.004 382.815 195.661 382.009 195.446V195.446Z" fill="#FB923C"/>
<path d="M262.654 136.936C262.654 136.936 265.971 137.715 266.316 137.461C266.662 137.208 265.556 140.737 265.764 141.912L265.971 143.086C265.971 143.086 263.068 142.465 262.654 141.843C262.239 141.221 262.654 136.936 262.654 136.936Z" fill="#818CF8"/>
<path d="M414.208 199.62L404.335 203.471C404.335 203.471 406.127 204.393 406.219 205.982L406.307 207.599L415.014 203.605C415.014 203.605 413.761 200.878 414.208 199.62Z" fill="url(#paint50_linear_239_4792)"/>
<path d="M302.814 159.589L303.348 156.364L308.02 157.608C308.02 157.608 307.029 158.953 307.029 160.119V161.289L302.814 160.575V159.589Z" fill="#FB923C"/>
<path d="M362.319 158.073L364.424 157.714C364.298 158.153 364.298 158.62 364.424 159.059C364.536 159.41 364.745 159.721 365.028 159.958L362.319 160.418V158.073Z" fill="#22C55E"/>
<path d="M309.535 170.89C310.325 171.665 311.202 172.347 312.148 172.922L313.23 173.461C313.23 173.461 311.111 173.866 310.659 175.447C310.208 177.027 310.917 178.828 310.917 178.828C310.917 178.828 308.153 176.842 307.55 175.539C306.946 174.235 309.535 170.89 309.535 170.89Z" fill="#818CF8"/>
<path d="M354.058 207.678L358.08 205.835C358.08 205.835 357.96 208.475 358.79 209.576C359.367 210.29 360.11 210.851 360.955 211.211L357.762 213.257C357.762 213.257 354.178 210.87 354.058 207.678Z" fill="url(#paint51_linear_239_4792)"/>
<path d="M317.427 214.399L316.529 209.553H320.929L320.297 214.026L317.427 214.399Z" fill="#CF460D"/>
<path d="M357.085 240.181C357.085 240.181 359.725 246.027 364.981 247.847C370.238 249.666 371.16 248.962 371.16 248.962C371.16 248.962 371.45 247.764 371.708 246.29C371.912 245.273 372.253 244.289 372.721 243.364C370.324 243.005 368.034 242.124 366.013 240.784C362.899 238.623 361.927 236.905 361.927 236.905L357.085 240.181Z" fill="#CF460D"/>
<path d="M384.05 89.2804L385.981 88.6907L387.916 91.6991L386.395 92.7864C386.395 92.7864 384.419 89.5292 384.05 89.2804Z" fill="url(#paint52_linear_239_4792)"/>
<path d="M305.822 188.019L298.999 190.728C298.999 190.728 300.238 191.359 300.298 192.493L300.358 193.626L306.347 190.82C306.347 190.82 305.513 188.899 305.822 188.019Z" fill="#EC4899"/>
<path d="M299.091 107.75C299.091 107.75 298.345 110.312 296.649 111.376C294.954 112.44 294.756 112.44 294.756 112.44L298.934 114.887C298.934 114.887 301.021 113.385 301.731 111.616C302.169 110.506 302.499 109.356 302.717 108.183L299.091 107.75Z" fill="#FB923C"/>
<path d="M413.254 129.975C413.254 129.975 413.992 132.536 415.659 133.6C417.327 134.665 417.502 134.665 417.502 134.665L413.393 137.13C413.393 137.13 411.338 135.632 410.628 133.858C410.199 132.749 409.875 131.601 409.661 130.431L413.254 129.975Z" fill="#FB923C"/>
<path d="M323.435 84.0882L319.445 82.7522L314.023 86.2582L318.902 88.6999L323.435 84.0882Z" fill="url(#paint53_linear_239_4792)"/>
<path d="M342.854 112.938C342.854 112.938 340.919 113.154 340.2 112.569C339.787 112.24 339.47 111.808 339.279 111.316L337.196 116.513C337.714 117.07 338.321 117.537 338.993 117.895C339.235 118.027 339.506 118.097 339.781 118.097C340.056 118.097 340.327 118.027 340.569 117.895L342.854 112.938Z" fill="#818CF8"/>
<path d="M246.322 417.617C246.322 417.617 244.967 422.261 241.894 424.192C238.822 426.122 238.462 426.122 238.462 426.122L246.036 430.549C246.036 430.549 249.823 427.836 251.104 424.62C251.896 422.61 252.495 420.529 252.892 418.405L246.322 417.617Z" fill="#22C55E"/>
<path d="M207.245 362.793C207.322 361.636 207.651 360.509 208.208 359.492C208.765 358.474 209.537 357.59 210.47 356.901L213.625 354.639L208.889 351.252C208.889 351.252 205.282 352.294 203.591 355.164C202.591 356.824 201.946 358.673 201.698 360.596L207.245 362.793Z" fill="#CF460D"/>
<path d="M205.826 285.339L201.79 277.581C201.79 277.581 197.708 279.424 195.672 283.109C193.635 286.795 195.589 292.591 195.589 292.591H200.15C200.15 292.591 199.228 288.864 201.269 287.412C202.663 286.474 204.203 285.773 205.826 285.339V285.339Z" fill="#CF460D"/>
<path d="M232.04 327.028C230.851 329.83 228.267 332.769 224.908 333.289C221.55 333.81 220.66 333.289 220.66 333.289L226.097 340.546C226.097 340.546 234.426 339.679 236.969 336.399L239.513 333.114L232.04 327.028Z" fill="#22C55E"/>
<path d="M290.218 337.302C290.291 336.15 290.613 335.027 291.16 334.01C291.707 332.993 292.467 332.106 293.388 331.41L296.488 329.152L291.835 325.761C291.835 325.761 288.287 326.807 286.624 329.673C285.645 331.34 285.018 333.19 284.781 335.109L290.218 337.302Z" fill="#818CF8"/>
<path d="M233.482 353.326C233.482 353.326 239.775 354.832 240.434 354.344C241.093 353.855 238.987 360.665 239.383 362.931L239.775 365.203C239.775 365.203 234.247 364 233.482 362.798C232.717 361.595 233.482 353.326 233.482 353.326Z" fill="#FB923C"/>
<path d="M270.168 284.943C270.168 284.943 268.597 290.411 265.04 292.683C261.484 294.954 261.073 294.954 261.073 294.954L269.827 300.174C269.827 300.174 274.213 296.977 275.701 293.19C276.619 290.82 277.312 288.369 277.77 285.869L270.168 284.943Z" fill="#FB923C"/>
<path d="M326.425 329.572L313.281 334.801C313.281 334.801 315.672 336.017 315.792 338.205L315.912 340.394L327.508 334.98C327.508 334.98 325.826 331.272 326.425 329.572Z" fill="url(#paint54_linear_239_4792)"/>
<path d="M303.689 301.068C303.689 301.068 300.727 303.942 298.621 304.988L296.53 306.029C296.53 306.029 300.625 306.817 301.491 309.863C302.357 312.908 300.998 316.391 300.998 316.391C300.998 316.391 306.366 312.562 307.499 310.038C308.632 307.513 303.689 301.068 303.689 301.068Z" fill="#CF460D"/>
<path d="M202.951 344.522L194.75 340.744C194.75 340.744 194.99 346.134 193.304 348.382C192.123 349.837 190.605 350.982 188.881 351.718L195.391 355.892C195.391 355.892 202.711 351.036 202.951 344.522Z" fill="url(#paint55_linear_239_4792)"/>
<path d="M209.576 334.22L211.409 324.329H202.435L203.716 333.46L209.576 334.22Z" fill="#CF460D"/>
<path d="M251.569 314.861L264.718 320.09C264.718 320.09 262.327 321.306 262.212 323.495L262.092 325.688L250.496 320.275C250.496 320.275 252.168 316.566 251.569 314.861Z" fill="url(#paint56_linear_239_4792)"/>
<path d="M238.186 280.764C238.186 280.764 242.632 280.175 244.907 277.023C247.183 273.872 246.898 273.112 246.898 273.112C246.898 273.112 246.156 272.674 245.221 272.191C244.582 271.849 243.991 271.423 243.465 270.924C242.742 272.455 241.692 273.809 240.388 274.89C238.315 276.54 236.969 276.844 236.969 276.844L238.186 280.764Z" fill="#CF460D"/>
<path d="M191.309 312.843L193.428 308.821C194.75 309.456 195.867 310.449 196.653 311.687C197.726 313.585 196.699 316.598 196.699 316.598H194.294C194.294 316.598 194.755 314.663 193.704 313.912C192.97 313.427 192.16 313.066 191.309 312.843V312.843Z" fill="#FB923C"/>
<path d="M225.346 317.266L214.906 321.348C214.906 321.348 216.804 322.297 216.901 324.002L216.993 325.711L226.207 321.491C226.207 321.491 224.871 318.579 225.346 317.266Z" fill="url(#paint57_linear_239_4792)"/>
<path d="M38.4368 313.949L45.6561 309.208C45.6561 309.208 47.5542 313.221 49.8853 314.46C51.2753 315.202 52.7432 315.788 54.2621 316.206L48.7336 321.237C48.7336 321.237 39.6208 316.345 38.4368 313.949Z" fill="#FB923C"/>
<path d="M152.66 222.121C152.66 222.121 155.424 225.645 157.405 226.931L159.368 228.211C159.368 228.211 155.525 229.17 154.705 232.911C153.885 236.652 155.166 240.918 155.166 240.918C155.166 240.918 150.098 236.218 149.053 233.123C148.007 230.027 152.66 222.121 152.66 222.121Z" fill="#FB923C"/>
<defs>
<linearGradient id="paint0_linear_239_4792" x1="357.541" y1="215.703" x2="371.017" y2="215.703" gradientUnits="userSpaceOnUse">
<stop offset="0.01" stop-color="#FFF2A6"/>
<stop offset="1" stop-color="#CE8704"/>
</linearGradient>
<linearGradient id="paint1_linear_239_4792" x1="412.526" y1="251.731" x2="433.148" y2="251.731" gradientUnits="userSpaceOnUse">
<stop offset="0.01" stop-color="#FFF2A6"/>
<stop offset="1" stop-color="#CE8704"/>
</linearGradient>
<linearGradient id="paint2_linear_239_4792" x1="365.673" y1="122.894" x2="381.88" y2="122.894" gradientUnits="userSpaceOnUse">
<stop offset="0.01" stop-color="#A89100"/>
<stop offset="0.08" stop-color="#BDA10F"/>
<stop offset="0.2" stop-color="#D9B824"/>
<stop offset="0.32" stop-color="#EEC933"/>
<stop offset="0.44" stop-color="#FBD33C"/>
<stop offset="0.56" stop-color="#FFD63F"/>
<stop offset="0.64" stop-color="#FAD23C"/>
<stop offset="0.74" stop-color="#EDC832"/>
<stop offset="0.85" stop-color="#D7B622"/>
<stop offset="0.95" stop-color="#B89D0B"/>
<stop offset="1" stop-color="#A89100"/>
</linearGradient>
<linearGradient id="paint3_linear_239_4792" x1="283.768" y1="178.676" x2="292.259" y2="178.676" gradientUnits="userSpaceOnUse">
<stop offset="0.01" stop-color="#FFF2A6"/>
<stop offset="1" stop-color="#CE8704"/>
</linearGradient>
<linearGradient id="paint4_linear_239_4792" x1="378.222" y1="69.3456" x2="402.368" y2="69.3456" gradientUnits="userSpaceOnUse">
<stop offset="0.01" stop-color="#A89100"/>
<stop offset="0.08" stop-color="#BDA10F"/>
<stop offset="0.2" stop-color="#D9B824"/>
<stop offset="0.32" stop-color="#EEC933"/>
<stop offset="0.44" stop-color="#FBD33C"/>
<stop offset="0.56" stop-color="#FFD63F"/>
<stop offset="0.64" stop-color="#FAD23C"/>
<stop offset="0.74" stop-color="#EDC832"/>
<stop offset="0.85" stop-color="#D7B622"/>
<stop offset="0.95" stop-color="#B89D0B"/>
<stop offset="1" stop-color="#A89100"/>
</linearGradient>
<linearGradient id="paint5_linear_239_4792" x1="240.061" y1="104.29" x2="253.712" y2="104.29" gradientUnits="userSpaceOnUse">
<stop offset="0.01" stop-color="#FFF2A6"/>
<stop offset="1" stop-color="#CE8704"/>
</linearGradient>
<linearGradient id="paint6_linear_239_4792" x1="36.0872" y1="182.03" x2="45.1308" y2="182.03" gradientUnits="userSpaceOnUse">
<stop offset="0.01" stop-color="#FFF2A6"/>
<stop offset="1" stop-color="#CE8704"/>
</linearGradient>
<linearGradient id="paint7_linear_239_4792" x1="124.681" y1="206.295" x2="132.108" y2="206.295" gradientUnits="userSpaceOnUse">
<stop offset="0.01" stop-color="#FFF2A6"/>
<stop offset="1" stop-color="#CE8704"/>
</linearGradient>
<linearGradient id="paint8_linear_239_4792" x1="171.291" y1="164.873" x2="186.324" y2="164.873" gradientUnits="userSpaceOnUse">
<stop offset="0.01" stop-color="#FFF2A6"/>
<stop offset="1" stop-color="#CE8704"/>
</linearGradient>
<linearGradient id="paint9_linear_239_4792" x1="126.999" y1="284.16" x2="136.876" y2="284.16" gradientUnits="userSpaceOnUse">
<stop offset="0.01" stop-color="#FFF2A6"/>
<stop offset="1" stop-color="#CE8704"/>
</linearGradient>
<linearGradient id="paint10_linear_239_4792" x1="325.522" y1="39.3675" x2="332.165" y2="39.3675" gradientUnits="userSpaceOnUse">
<stop offset="0.01" stop-color="#FFF2A6"/>
<stop offset="1" stop-color="#CE8704"/>
</linearGradient>
<linearGradient id="paint11_linear_239_4792" x1="81.4946" y1="323.214" x2="89.8426" y2="323.214" gradientUnits="userSpaceOnUse">
<stop offset="0.01" stop-color="#A89100"/>
<stop offset="0.08" stop-color="#BDA10F"/>
<stop offset="0.2" stop-color="#D9B824"/>
<stop offset="0.32" stop-color="#EEC933"/>
<stop offset="0.44" stop-color="#FBD33C"/>
<stop offset="0.56" stop-color="#FFD63F"/>
<stop offset="0.64" stop-color="#FAD23C"/>
<stop offset="0.74" stop-color="#EDC832"/>
<stop offset="0.85" stop-color="#D7B622"/>
<stop offset="0.95" stop-color="#B89D0B"/>
<stop offset="1" stop-color="#A89100"/>
</linearGradient>
<linearGradient id="paint12_linear_239_4792" x1="205.734" y1="344.227" x2="210.875" y2="344.227" gradientUnits="userSpaceOnUse">
<stop offset="0.01" stop-color="#FFF2A6"/>
<stop offset="1" stop-color="#CE8704"/>
</linearGradient>
<linearGradient id="paint13_linear_239_4792" x1="167.79" y1="20.2618" x2="178.69" y2="20.2618" gradientUnits="userSpaceOnUse">
<stop offset="0.01" stop-color="#FFF2A6"/>
<stop offset="1" stop-color="#CE8704"/>
</linearGradient>
<linearGradient id="paint14_linear_239_4792" x1="27.5272" y1="115.674" x2="44.5227" y2="115.674" gradientUnits="userSpaceOnUse">
<stop offset="0.01" stop-color="#A89100"/>
<stop offset="0.08" stop-color="#BDA10F"/>
<stop offset="0.2" stop-color="#D9B824"/>
<stop offset="0.32" stop-color="#EEC933"/>
<stop offset="0.44" stop-color="#FBD33C"/>
<stop offset="0.56" stop-color="#FFD63F"/>
<stop offset="0.64" stop-color="#FAD23C"/>
<stop offset="0.74" stop-color="#EDC832"/>
<stop offset="0.85" stop-color="#D7B622"/>
<stop offset="0.95" stop-color="#B89D0B"/>
<stop offset="1" stop-color="#A89100"/>
</linearGradient>
<linearGradient id="paint15_linear_239_4792" x1="397.636" y1="310.282" x2="410.946" y2="310.282" gradientUnits="userSpaceOnUse">
<stop offset="0.01" stop-color="#FFF2A6"/>
<stop offset="1" stop-color="#CE8704"/>
</linearGradient>
<linearGradient id="paint16_linear_239_4792" x1="280.506" y1="387.736" x2="289.937" y2="387.736" gradientUnits="userSpaceOnUse">
<stop offset="0.01" stop-color="#FFF2A6"/>
<stop offset="1" stop-color="#CE8704"/>
</linearGradient>
<linearGradient id="paint17_linear_239_4792" x1="103.949" y1="98.7942" x2="113.283" y2="98.7942" gradientUnits="userSpaceOnUse">
<stop offset="0.01" stop-color="#FFF2A6"/>
<stop offset="1" stop-color="#CE8704"/>
</linearGradient>
<linearGradient id="paint18_linear_239_4792" x1="449.47" y1="166.624" x2="441.415" y2="163.42" gradientUnits="userSpaceOnUse">
<stop offset="0.01" stop-color="#FFF2A6"/>
<stop offset="1" stop-color="#CE8704"/>
</linearGradient>
<linearGradient id="paint19_linear_239_4792" x1="322.486" y1="175.23" x2="332.958" y2="175.23" gradientUnits="userSpaceOnUse">
<stop offset="0.01" stop-color="#FFF2A6"/>
<stop offset="1" stop-color="#CE8704"/>
</linearGradient>
<linearGradient id="paint20_linear_239_4792" x1="286.224" y1="115.67" x2="293.655" y2="115.67" gradientUnits="userSpaceOnUse">
<stop offset="0.01" stop-color="#FFF2A6"/>
<stop offset="1" stop-color="#CE8704"/>
</linearGradient>
<linearGradient id="paint21_linear_239_4792" x1="224.392" y1="191.272" x2="236.112" y2="191.272" gradientUnits="userSpaceOnUse">
<stop offset="0.01" stop-color="#FFF2A6"/>
<stop offset="1" stop-color="#CE8704"/>
</linearGradient>
<linearGradient id="paint22_linear_239_4792" x1="251.385" y1="163.021" x2="262.377" y2="163.021" gradientUnits="userSpaceOnUse">
<stop offset="0.01" stop-color="#FFF2A6"/>
<stop offset="1" stop-color="#CE8704"/>
</linearGradient>
<linearGradient id="paint23_linear_239_4792" x1="26.0806" y1="329.77" x2="36.7552" y2="329.77" gradientUnits="userSpaceOnUse">
<stop offset="0.01" stop-color="#FFF2A6"/>
<stop offset="1" stop-color="#CE8704"/>
</linearGradient>
<linearGradient id="paint24_linear_239_4792" x1="206.977" y1="118.738" x2="195.395" y2="118.738" gradientUnits="userSpaceOnUse">
<stop offset="0.01" stop-color="#FFF2A6"/>
<stop offset="1" stop-color="#CE8704"/>
</linearGradient>
<linearGradient id="paint25_linear_239_4792" x1="98.7111" y1="164.588" x2="109.183" y2="164.588" gradientUnits="userSpaceOnUse">
<stop offset="0.01" stop-color="#FFF2A6"/>
<stop offset="1" stop-color="#CE8704"/>
</linearGradient>
<linearGradient id="paint26_linear_239_4792" x1="276.894" y1="315.253" x2="288.619" y2="315.253" gradientUnits="userSpaceOnUse">
<stop offset="0.01" stop-color="#FFF2A6"/>
<stop offset="1" stop-color="#CE8704"/>
</linearGradient>
<linearGradient id="paint27_linear_239_4792" x1="201.149" y1="157.645" x2="215.395" y2="157.645" gradientUnits="userSpaceOnUse">
<stop offset="0.01" stop-color="#FFF2A6"/>
<stop offset="1" stop-color="#CE8704"/>
</linearGradient>
<linearGradient id="paint28_linear_239_4792" x1="267.404" y1="205.199" x2="288.025" y2="205.199" gradientUnits="userSpaceOnUse">
<stop offset="0.01" stop-color="#A89100"/>
<stop offset="0.08" stop-color="#BDA10F"/>
<stop offset="0.2" stop-color="#D9B824"/>
<stop offset="0.32" stop-color="#EEC933"/>
<stop offset="0.44" stop-color="#FBD33C"/>
<stop offset="0.56" stop-color="#FFD63F"/>
<stop offset="0.64" stop-color="#FAD23C"/>
<stop offset="0.74" stop-color="#EDC832"/>
<stop offset="0.85" stop-color="#D7B622"/>
<stop offset="0.95" stop-color="#B89D0B"/>
<stop offset="1" stop-color="#A89100"/>
</linearGradient>
<linearGradient id="paint29_linear_239_4792" x1="252.514" y1="263.75" x2="265.824" y2="263.75" gradientUnits="userSpaceOnUse">
<stop offset="0.01" stop-color="#FFF2A6"/>
<stop offset="1" stop-color="#CE8704"/>
</linearGradient>
<linearGradient id="paint30_linear_239_4792" x1="292.715" y1="132.85" x2="284.66" y2="129.645" gradientUnits="userSpaceOnUse">
<stop offset="0.01" stop-color="#FFF2A6"/>
<stop offset="1" stop-color="#CE8704"/>
</linearGradient>
<linearGradient id="paint31_linear_239_4792" x1="202.278" y1="248.929" x2="187.241" y2="248.929" gradientUnits="userSpaceOnUse">
<stop offset="0.01" stop-color="#FFF2A6"/>
<stop offset="1" stop-color="#CE8704"/>
</linearGradient>
<linearGradient id="paint32_linear_239_4792" x1="136.839" y1="249.187" x2="116.218" y2="249.187" gradientUnits="userSpaceOnUse">
<stop offset="0.01" stop-color="#FFF2A6"/>
<stop offset="1" stop-color="#CE8704"/>
</linearGradient>
<linearGradient id="paint33_linear_239_4792" x1="147.482" y1="317.8" x2="133.412" y2="317.8" gradientUnits="userSpaceOnUse">
<stop offset="0.01" stop-color="#FFF2A6"/>
<stop offset="1" stop-color="#CE8704"/>
</linearGradient>
<linearGradient id="paint34_linear_239_4792" x1="102.932" y1="168.693" x2="110.966" y2="165.47" gradientUnits="userSpaceOnUse">
<stop offset="0.01" stop-color="#FFF2A6"/>
<stop offset="1" stop-color="#CE8704"/>
</linearGradient>
<linearGradient id="paint35_linear_239_4792" x1="200.38" y1="299.275" x2="215.413" y2="299.275" gradientUnits="userSpaceOnUse">
<stop offset="0.01" stop-color="#FFF2A6"/>
<stop offset="1" stop-color="#CE8704"/>
</linearGradient>
<linearGradient id="paint36_linear_239_4792" x1="176.285" y1="175.23" x2="157.083" y2="175.23" gradientUnits="userSpaceOnUse">
<stop offset="0.01" stop-color="#A89100"/>
<stop offset="0.08" stop-color="#BDA10F"/>
<stop offset="0.2" stop-color="#D9B824"/>
<stop offset="0.32" stop-color="#EEC933"/>
<stop offset="0.44" stop-color="#FBD33C"/>
<stop offset="0.56" stop-color="#FFD63F"/>
<stop offset="0.64" stop-color="#FAD23C"/>
<stop offset="0.74" stop-color="#EDC832"/>
<stop offset="0.85" stop-color="#D7B622"/>
<stop offset="0.95" stop-color="#B89D0B"/>
<stop offset="1" stop-color="#A89100"/>
</linearGradient>
<linearGradient id="paint37_linear_239_4792" x1="181.187" y1="411.536" x2="188.084" y2="411.536" gradientUnits="userSpaceOnUse">
<stop offset="0.01" stop-color="#FFF2A6"/>
<stop offset="1" stop-color="#CE8704"/>
</linearGradient>
<linearGradient id="paint38_linear_239_4792" x1="195.704" y1="202.813" x2="200.91" y2="202.813" gradientUnits="userSpaceOnUse">
<stop offset="0.01" stop-color="#FFF2A6"/>
<stop offset="1" stop-color="#CE8704"/>
</linearGradient>
<linearGradient id="paint39_linear_239_4792" x1="401.212" y1="380.83" x2="413.692" y2="380.83" gradientUnits="userSpaceOnUse">
<stop offset="0.01" stop-color="#A89100"/>
<stop offset="0.08" stop-color="#BDA10F"/>
<stop offset="0.2" stop-color="#D9B824"/>
<stop offset="0.32" stop-color="#EEC933"/>
<stop offset="0.44" stop-color="#FBD33C"/>
<stop offset="0.56" stop-color="#FFD63F"/>
<stop offset="0.64" stop-color="#FAD23C"/>
<stop offset="0.74" stop-color="#EDC832"/>
<stop offset="0.85" stop-color="#D7B622"/>
<stop offset="0.95" stop-color="#B89D0B"/>
<stop offset="1" stop-color="#A89100"/>
</linearGradient>
<linearGradient id="paint40_linear_239_4792" x1="301.966" y1="265.303" x2="308.863" y2="265.303" gradientUnits="userSpaceOnUse">
<stop offset="0.01" stop-color="#FFF2A6"/>
<stop offset="1" stop-color="#CE8704"/>
</linearGradient>
<linearGradient id="paint41_linear_239_4792" x1="300.602" y1="406.947" x2="307.499" y2="406.947" gradientUnits="userSpaceOnUse">
<stop offset="0.01" stop-color="#FFF2A6"/>
<stop offset="1" stop-color="#CE8704"/>
</linearGradient>
<linearGradient id="paint42_linear_239_4792" x1="163.404" y1="289.702" x2="174.696" y2="289.702" gradientUnits="userSpaceOnUse">
<stop offset="0.01" stop-color="#FFF2A6"/>
<stop offset="1" stop-color="#CE8704"/>
</linearGradient>
<linearGradient id="paint43_linear_239_4792" x1="121.759" y1="218.417" x2="117.586" y2="216.757" gradientUnits="userSpaceOnUse">
<stop offset="0.01" stop-color="#FFF2A6"/>
<stop offset="1" stop-color="#CE8704"/>
</linearGradient>
<linearGradient id="paint44_linear_239_4792" x1="68.8435" y1="268.362" x2="61.4722" y2="268.362" gradientUnits="userSpaceOnUse">
<stop offset="0.01" stop-color="#FFF2A6"/>
<stop offset="1" stop-color="#CE8704"/>
</linearGradient>
<linearGradient id="paint45_linear_239_4792" x1="166.684" y1="220.628" x2="174.954" y2="220.628" gradientUnits="userSpaceOnUse">
<stop offset="0.01" stop-color="#A89100"/>
<stop offset="0.08" stop-color="#BDA10F"/>
<stop offset="0.2" stop-color="#D9B824"/>
<stop offset="0.32" stop-color="#EEC933"/>
<stop offset="0.44" stop-color="#FBD33C"/>
<stop offset="0.56" stop-color="#FFD63F"/>
<stop offset="0.64" stop-color="#FAD23C"/>
<stop offset="0.74" stop-color="#EDC832"/>
<stop offset="0.85" stop-color="#D7B622"/>
<stop offset="0.95" stop-color="#B89D0B"/>
<stop offset="1" stop-color="#A89100"/>
</linearGradient>
<linearGradient id="paint46_linear_239_4792" x1="276.143" y1="92.298" x2="286.823" y2="92.298" gradientUnits="userSpaceOnUse">
<stop offset="0.01" stop-color="#FFF2A6"/>
<stop offset="1" stop-color="#CE8704"/>
</linearGradient>
<linearGradient id="paint47_linear_239_4792" x1="220.941" y1="67.0007" x2="227.838" y2="67.0007" gradientUnits="userSpaceOnUse">
<stop offset="0.01" stop-color="#FFF2A6"/>
<stop offset="1" stop-color="#CE8704"/>
</linearGradient>
<linearGradient id="paint48_linear_239_4792" x1="241.247" y1="9.21723" x2="237.074" y2="7.55694" gradientUnits="userSpaceOnUse">
<stop offset="0.01" stop-color="#FFF2A6"/>
<stop offset="1" stop-color="#CE8704"/>
</linearGradient>
<linearGradient id="paint49_linear_239_4792" x1="178.192" y1="79.5042" x2="170.821" y2="79.5042" gradientUnits="userSpaceOnUse">
<stop offset="0.01" stop-color="#FFF2A6"/>
<stop offset="1" stop-color="#CE8704"/>
</linearGradient>
<linearGradient id="paint50_linear_239_4792" x1="404.335" y1="203.614" x2="415.014" y2="203.614" gradientUnits="userSpaceOnUse">
<stop offset="0.01" stop-color="#FFF2A6"/>
<stop offset="1" stop-color="#CE8704"/>
</linearGradient>
<linearGradient id="paint51_linear_239_4792" x1="354.058" y1="209.534" x2="360.955" y2="209.534" gradientUnits="userSpaceOnUse">
<stop offset="0.01" stop-color="#FFF2A6"/>
<stop offset="1" stop-color="#CE8704"/>
</linearGradient>
<linearGradient id="paint52_linear_239_4792" x1="390.74" y1="86.9558" x2="386.567" y2="85.2955" gradientUnits="userSpaceOnUse">
<stop offset="0.01" stop-color="#FFF2A6"/>
<stop offset="1" stop-color="#CE8704"/>
</linearGradient>
<linearGradient id="paint53_linear_239_4792" x1="314.023" y1="85.7238" x2="323.435" y2="85.7238" gradientUnits="userSpaceOnUse">
<stop offset="0.01" stop-color="#FFF2A6"/>
<stop offset="1" stop-color="#CE8704"/>
</linearGradient>
<linearGradient id="paint54_linear_239_4792" x1="327.498" y1="334.98" x2="313.272" y2="334.98" gradientUnits="userSpaceOnUse">
<stop offset="0.01" stop-color="#FFF2A6"/>
<stop offset="1" stop-color="#CE8704"/>
</linearGradient>
<linearGradient id="paint55_linear_239_4792" x1="202.951" y1="348.318" x2="188.881" y2="348.318" gradientUnits="userSpaceOnUse">
<stop offset="0.01" stop-color="#FFF2A6"/>
<stop offset="1" stop-color="#CE8704"/>
</linearGradient>
<linearGradient id="paint56_linear_239_4792" x1="250.491" y1="320.275" x2="264.718" y2="320.275" gradientUnits="userSpaceOnUse">
<stop offset="0.01" stop-color="#FFF2A6"/>
<stop offset="1" stop-color="#CE8704"/>
</linearGradient>
<linearGradient id="paint57_linear_239_4792" x1="214.906" y1="321.477" x2="226.198" y2="321.477" gradientUnits="userSpaceOnUse">
<stop offset="0.01" stop-color="#FFF2A6"/>
<stop offset="1" stop-color="#CE8704"/>
</linearGradient>
</defs>
</svg>
