<svg width="40" height="47" viewBox="0 0 40 47" fill="none" xmlns="http://www.w3.org/2000/svg">
<path d="M20 47L14.8038 38L25.1962 38L20 47Z" fill="#FA561A"/>
<circle cx="20" cy="20" r="19.5" fill="#292825" stroke="#FA561A"/>
<path d="M28.6462 21.0519C28.6462 21.054 28.6462 21.056 28.6462 21.0581C28.6337 21.524 28.6122 21.938 28.5793 22.2713C28.5793 22.2713 28.5793 22.2713 28.5793 22.272C28.5742 22.3223 28.5689 22.3708 28.5635 22.4174C28.5249 22.7422 28.435 23.2065 28.3209 23.6834C28.3208 23.684 28.3208 23.6847 28.3209 23.6853C28.2143 24.1321 28.0872 24.5893 27.964 24.952V24.953C27.9206 25.0801 27.8779 25.1949 27.8365 25.2941C27.8065 25.3659 27.7718 25.4453 27.7332 25.5302L27.7318 25.5333C27.4316 26.1948 26.8996 27.1971 26.5197 27.7274V27.7282C26.5024 27.7522 26.4855 27.7754 26.4689 27.7975C26.308 28.0114 26.1059 28.2539 25.8754 28.5131C25.4334 29.0099 24.8871 29.569 24.3286 30.1047C23.5488 30.8526 22.7451 31.5557 22.1674 31.9844C22.0506 32.0709 21.8944 32.1692 21.7153 32.2708C21.1422 32.5943 20.3392 32.9435 19.8852 32.9933V32.9941H19.8769L19.855 32.9961C19.8309 32.9981 19.8083 32.9992 19.7859 32.9993V32.9923C19.7743 32.9918 19.7626 32.9909 19.7509 32.99H19.7474C19.6386 32.9806 19.5309 32.9613 19.4257 32.9323L19.4114 32.9286C19.3379 32.9086 19.2652 32.8852 19.1931 32.86C19.0979 32.8269 19.0028 32.7913 18.9077 32.7532L18.9064 32.7526C18.4113 32.5541 17.9251 32.2904 17.5031 31.9785C17.3581 31.8707 17.2153 31.7599 17.075 31.6463L17.0494 31.6258L17.0228 31.6043L16.9651 31.5581L16.9634 31.5567C16.575 31.2379 16.2014 30.9015 15.8325 30.5608C14.9227 29.7209 14.0033 28.8427 13.2508 27.8573C13.2342 27.8357 13.2177 27.814 13.2013 27.7922C12.861 27.3398 12.3732 26.4452 12.0488 25.766C12.0072 25.6789 11.9683 25.5954 11.9327 25.5168C11.8956 25.435 11.8626 25.3587 11.8333 25.2891C11.8288 25.2784 11.8243 25.2675 11.8198 25.2564C11.8198 25.2559 11.8198 25.2554 11.8198 25.2549C11.6588 24.8585 11.4784 24.2296 11.3367 23.6273C11.2743 23.3616 11.2198 23.1022 11.177 22.8695C11.177 22.8686 11.177 22.8677 11.177 22.8666C11.1462 22.6981 11.1222 22.5438 11.1069 22.4126C11.0952 22.3141 11.0847 22.2069 11.0754 22.0918C11.0583 21.9147 11.0466 21.7203 11.0377 21.5123C11.0451 21.6593 11.0534 21.7937 11.0626 21.9182C11.0286 21.2836 11.018 20.4772 11.0217 19.6137V19.5559C11.0225 19.3754 11.024 19.1926 11.0261 19.0085C11.0432 17.4937 11.0962 15.889 11.1393 14.7728C11.1393 14.7714 11.1393 14.7701 11.1393 14.7687C11.1772 13.8991 11.2085 13.3255 11.2085 13.3255C11.2085 13.3255 11.0746 13.2226 11.0674 12.8346C11.0722 12.7602 11.0813 12.6748 11.0791 12.5804C11.086 12.5126 11.096 12.439 11.1099 12.3592C11.1119 12.3476 11.1142 12.3361 11.117 12.3252C11.1578 12.1583 11.2856 11.9694 11.4549 11.7813L11.4573 11.7785C11.7233 11.4834 12.0906 11.1902 12.3827 10.9851C12.4781 10.9181 12.5656 10.8605 12.6387 10.8154C13.8345 10.0775 16.5826 9.18686 17.9848 9.04359C18.4823 8.99276 19.9717 8.99957 19.9717 8.99957V9.00581C20.4262 9.0065 21.3194 9.01263 21.683 9.04983C23.0848 9.1931 25.8333 10.0838 27.0292 10.8217C27.4795 11.099 28.3624 11.709 28.5323 12.2064C28.6242 12.4755 28.4586 13.3306 28.4586 13.3306C28.4586 13.3306 28.7227 18.175 28.6462 21.0519Z" fill="#C6B6A8"/>
<path d="M26.6621 16.1011C26.6621 16.1011 25.6903 14.7118 25.2558 14.3565C24.7866 13.9723 23.5958 13.49 22.9868 13.4784C22.4681 13.4678 21.2712 14.0626 21.2322 14.5743C21.2217 14.7129 21.565 14.8593 21.7046 14.874C21.9466 14.8995 22.3764 14.5769 22.6158 14.5364C23.1112 14.4527 24.1111 14.7797 24.5809 14.955C25.1388 15.1618 26.6621 16.1011 26.6621 16.1011Z" fill="#A6540A"/>
<path d="M12.4585 16.2735C12.4585 16.2735 13.3956 14.861 13.8211 14.4948C14.2807 14.0992 15.4592 13.5887 16.0677 13.5615C16.5859 13.5384 17.7972 14.1039 17.8489 14.6145C17.8629 14.7526 17.5233 14.9075 17.3841 14.9256C17.1428 14.9569 16.705 14.6449 16.4642 14.6102C15.9669 14.5386 14.9757 14.8897 14.51 15.0763C13.9581 15.2974 12.4585 16.2735 12.4585 16.2735Z" fill="#A6540A"/>
<path d="M15.696 19.0707C16.9142 18.6478 17.661 17.6267 17.364 16.7902C17.0671 15.9536 15.8389 15.6183 14.6207 16.0413C13.4026 16.4643 12.6558 17.4853 12.9527 18.3218C13.2497 19.1584 14.4779 19.4937 15.696 19.0707Z" fill="#1D531F"/>
<path d="M15.1631 18.0781C15.4454 18.0781 15.6743 17.8517 15.6743 17.5725C15.6743 17.2933 15.4454 17.0669 15.1631 17.0669C14.8807 17.0669 14.6519 17.2933 14.6519 17.5725C14.6519 17.8517 14.8807 18.0781 15.1631 18.0781Z" fill="#1D1D1B"/>
<path d="M26.6676 18.1917C26.9433 17.3446 26.1667 16.3395 24.9331 15.9468C23.6995 15.5542 22.476 15.9226 22.2003 16.7698C21.9246 17.617 22.7012 18.622 23.9348 19.0147C25.1684 19.4073 26.3919 19.0389 26.6676 18.1917Z" fill="#1D531F"/>
<path d="M24.4438 17.9665C24.7262 17.9665 24.955 17.7401 24.955 17.4609C24.955 17.1817 24.7262 16.9553 24.4438 16.9553C24.1615 16.9553 23.9326 17.1817 23.9326 17.4609C23.9326 17.7401 24.1615 17.9665 24.4438 17.9665Z" fill="#1D1D1B"/>
<path d="M28.457 19.1233C28.3929 19.0466 28.3234 18.9744 28.2489 18.9074C28.1426 18.8095 28.0355 18.7233 27.978 18.6783L27.5856 18.2435L26.4687 17.0065C26.4422 16.9666 26.4138 16.927 26.3834 16.8878C26.2228 16.6798 26.0184 16.4917 25.7759 16.3286C25.2566 15.9845 24.6501 15.7913 24.0253 15.771C23.7321 15.7635 23.455 15.7984 23.2018 15.875C22.9487 15.9516 22.731 16.0655 22.557 16.2143C22.5273 16.2395 22.4992 16.2656 22.4726 16.2926C22.3926 16.3332 21.9523 16.5554 21.7931 16.5898C21.6289 16.6254 21.1563 16.6198 21.1023 16.6191C21.0702 16.6017 20.8724 16.4969 20.6279 16.3953C20.2697 16.2465 19.9869 16.1746 19.7868 16.1819V16.1807C19.5867 16.1779 19.3053 16.2566 18.9502 16.4144C18.7083 16.522 18.5132 16.6317 18.4816 16.6497C18.4276 16.6518 17.9559 16.6687 17.7902 16.6372C17.6303 16.6066 17.1846 16.3953 17.1035 16.3564C17.0764 16.3302 17.0476 16.3048 17.0173 16.2803C16.8395 16.1359 16.6201 16.0269 16.3643 15.9568C16.1085 15.8867 15.8315 15.8586 15.5384 15.8732C14.9149 15.9087 14.3139 16.1161 13.8035 16.4721C13.5649 16.6411 13.3652 16.8342 13.2097 17.046C13.1804 17.0858 13.1529 17.1262 13.1273 17.1666L12.6439 17.7295L11.6575 18.8782C11.6341 18.8968 11.4847 19.0162 11.3375 19.1567C11.3039 19.1888 11.2727 19.2197 11.244 19.2492C11.1224 19.375 11.048 19.4776 11.022 19.5549V19.6126H11.0533C11.0523 19.5389 11.139 19.4218 11.2519 19.3015C11.3939 19.1498 11.5779 18.9937 11.6793 18.9128C11.7494 18.9287 12.163 19.0263 12.4114 19.1757C12.4634 19.207 12.5524 19.2226 12.6776 19.2226C12.7225 19.2226 12.7721 19.2205 12.8264 19.2165C12.9091 19.2105 13.0025 19.1996 13.1068 19.184C13.3462 19.1481 13.5656 19.0982 13.61 19.0878C13.7283 19.1472 13.8524 19.1946 13.9805 19.2292C14.201 19.2884 14.4287 19.3177 14.6572 19.3164C14.7065 19.3164 14.7562 19.3152 14.8063 19.3127C15.43 19.2773 16.0312 19.0696 16.5417 18.7134C16.7803 18.5444 16.9801 18.3513 17.1355 18.1395C17.1534 18.1153 17.1706 18.0909 17.1869 18.0664C17.2205 18.0317 17.8187 17.4051 18.0503 17.1999C18.25 17.0224 18.4752 16.7217 18.5021 16.6856C18.5624 16.651 19.3284 16.2217 19.7776 16.2217H19.7867V16.2017L19.7875 16.2229C20.2349 16.2061 21.0217 16.6225 21.0831 16.6555C21.111 16.6909 21.3437 16.986 21.5477 17.1586C21.7843 17.3586 22.398 17.9702 22.4323 18.0045C22.4494 18.0285 22.4674 18.0525 22.4855 18.0763C22.6461 18.2843 22.8505 18.4724 23.0929 18.6355C23.6121 18.9794 24.2185 19.1722 24.843 19.1922C24.8691 19.1929 24.8948 19.1932 24.9205 19.1932C25.173 19.1952 25.4244 19.1601 25.6666 19.0893C25.7937 19.0516 25.9166 19.0012 26.0334 18.9391C26.078 18.9483 26.2986 18.993 26.5389 19.0231C26.6683 19.0405 26.7986 19.0501 26.9291 19.0517C27.0752 19.0517 27.1772 19.0338 27.2338 18.9979C27.3589 18.9185 27.5274 18.8515 27.6717 18.8027C27.8107 18.7556 27.927 18.7254 27.9599 18.7172C28.0933 18.8212 28.3097 19.0061 28.4333 19.1612C28.49 19.2326 28.5267 19.2979 28.5279 19.3461L28.5694 19.3455C28.5696 19.289 28.5313 19.2147 28.457 19.1233ZM14.6591 19.276C14.4336 19.2773 14.209 19.2484 13.9914 19.1901C13.4784 19.0492 13.118 18.7511 12.9768 18.3515C12.8489 17.9885 12.9146 17.5814 13.161 17.1913C13.1864 17.1508 13.214 17.1104 13.2433 17.0705C13.5578 16.6419 14.0548 16.2942 14.6425 16.0913C14.9912 15.9708 15.3468 15.91 15.6863 15.91C15.9117 15.9088 16.1362 15.9378 16.3538 15.9962C16.6488 16.0771 16.8931 16.2102 17.0746 16.3844L17.0733 16.3871L17.0813 16.391C17.2103 16.5151 17.3085 16.667 17.3684 16.8349C17.5096 17.2346 17.4151 17.6899 17.1021 18.1157C16.7877 18.5443 16.2908 18.892 15.703 19.095C15.354 19.2151 14.9984 19.276 14.6591 19.276ZM13.1004 19.1439C12.9911 19.1603 12.8932 19.1714 12.8084 19.1773C12.6224 19.19 12.4948 19.178 12.4335 19.1411C12.1966 18.9986 11.826 18.9051 11.7121 18.8786L12.642 17.796L13.0263 17.3487C12.971 17.4611 12.9295 17.5796 12.9026 17.7018C12.8524 17.9328 12.8645 18.1562 12.9376 18.3652C13.0107 18.5742 13.1425 18.7562 13.3272 18.9062C13.3982 18.9637 13.4741 19.0148 13.5542 19.059C13.4683 19.0775 13.2907 19.1149 13.1004 19.1439ZM18.0224 17.1694C17.8512 17.3215 17.4815 17.7014 17.2846 17.9055C17.357 17.7732 17.4104 17.6316 17.443 17.4848C17.4931 17.2537 17.4812 17.0304 17.408 16.8214C17.3583 16.6812 17.2823 16.5516 17.1838 16.4394C17.3484 16.5161 17.6521 16.6525 17.7834 16.6775C17.8643 16.693 18.0117 16.6973 18.1511 16.6973C18.2714 16.6973 18.3858 16.694 18.446 16.6921C18.3783 16.7799 18.1908 17.0193 18.0224 17.1689V17.1694ZM22.2207 16.7772C22.2764 16.608 22.3708 16.4538 22.4967 16.3266L22.5047 16.3225L22.5033 16.3198C22.6803 16.1412 22.9214 16.0024 23.2142 15.9143C23.7263 15.7602 24.3349 15.7791 24.9274 15.9678C25.5199 16.1565 26.0255 16.4921 26.3505 16.9128C26.3808 16.9521 26.4093 16.9917 26.4358 17.0316C26.6915 17.4159 26.7671 17.8217 26.6482 18.187C26.5171 18.5901 26.1641 18.8965 25.6553 19.05C25.1432 19.2041 24.5347 19.1852 23.9421 18.9965C23.3495 18.8078 22.844 18.4722 22.5191 18.0515C22.1954 17.6324 22.0896 17.1798 22.2207 16.7768V16.7772ZM21.575 17.1274C21.403 16.9815 21.2099 16.7467 21.1398 16.6598C21.1632 16.6598 21.1938 16.6598 21.23 16.6598C21.3981 16.6598 21.6786 16.6556 21.8024 16.6289C21.9331 16.6006 22.2334 16.4568 22.396 16.3762C22.3002 16.4908 22.2274 16.6223 22.1813 16.7638C22.1126 16.9745 22.1061 17.1979 22.162 17.4278C22.1985 17.574 22.2555 17.7145 22.3314 17.845C22.129 17.6457 21.75 17.275 21.575 17.127V17.1274ZM27.6626 18.7617C27.5158 18.8113 27.3425 18.88 27.2117 18.9631C27.1236 19.019 26.893 19.0256 26.5447 18.982C26.3536 18.9582 26.1751 18.9251 26.0891 18.908C26.1681 18.8619 26.2428 18.809 26.3123 18.7499C26.4932 18.5953 26.6197 18.4101 26.6883 18.1995C26.7569 17.9889 26.7634 17.7653 26.7076 17.5355C26.6776 17.414 26.6331 17.2965 26.5751 17.1854L27.5947 18.3152L27.9154 18.6702C27.9165 18.6749 27.9176 18.6796 27.9188 18.6842C27.8673 18.698 27.7723 18.7244 27.6626 18.7612V18.7617Z" fill="#292825"/>
<path d="M11.0627 21.9177C11.0535 21.7933 11.0452 21.6588 11.0378 21.5118C11.0378 21.5085 11.0378 21.505 11.0378 21.5016C11.0085 20.9181 10.9955 20.1375 11.0014 18.999C11.0014 18.999 11.0057 19.0002 11.0131 19.0027C11.0314 17.4967 11.0911 15.8902 11.1402 14.7717C11.0969 15.8882 11.044 17.4926 11.027 19.0075C11.0245 19.1916 11.0233 19.375 11.0222 19.5549V19.6126C11.0181 20.4767 11.0287 21.2832 11.0627 21.9177Z" fill="#C6B6A8"/>
<path d="M13.2498 27.8562C13.2332 27.8346 13.2167 27.8129 13.2004 27.7911C12.8601 27.3387 12.3722 26.4441 12.0478 25.7649C12.0062 25.6778 11.9673 25.5943 11.9317 25.5157C11.9072 25.4829 11.8676 25.39 11.8188 25.2553C11.8188 25.2548 11.8188 25.2543 11.8188 25.2538C11.6579 24.8574 11.4774 24.2285 11.3357 23.6262C11.3061 23.5107 11.2782 23.397 11.2526 23.2879C11.2252 23.1457 11.1996 23.0095 11.176 22.8684C11.176 22.8675 11.176 22.8665 11.176 22.8655C11.1306 22.5941 11.0928 22.3046 11.0641 21.9202C11.0641 21.9194 11.0641 21.9186 11.0641 21.9178C11.0301 21.2832 11.0194 20.4768 11.0232 19.6132V19.5555C11.024 19.375 11.0255 19.1922 11.0276 19.0081C11.084 19.0297 11.218 19.0962 11.2456 19.2493L11.2466 19.2555C11.2483 19.2658 11.2504 19.2816 11.2527 19.3018C11.2973 19.6818 11.4704 21.729 11.6398 22.481C11.8998 23.6364 13.0127 25.7516 13.5519 26.8196C13.6723 27.0598 13.8996 28.2291 13.2498 27.8562Z" fill="#A6540A"/>
<path d="M28.6489 18.9937C28.6489 18.9937 28.4364 19.0493 28.4046 19.2496C28.3728 19.4498 28.19 21.6827 28.0115 22.4756C27.7515 23.631 26.6385 25.7462 26.0994 26.8142C25.9776 27.0552 25.864 28.3739 26.4099 27.8498C26.8268 27.4498 28.0207 25.3049 28.3075 23.755C28.5247 22.5806 28.6658 22.2634 28.6489 18.9937Z" fill="#A6540A"/>
<path d="M21.108 30.652C21.0436 30.4615 20.5344 30.0556 20.3584 29.9553C20.2713 29.9055 20.0017 29.8697 19.9132 29.8589V29.8557L19.9005 29.8574L19.8845 29.8557V29.8598C19.7961 29.8726 19.5277 29.915 19.4417 29.9667C19.2682 30.0707 18.7694 30.4894 18.7096 30.6815C18.6532 30.8627 18.718 31.3575 18.718 31.3575L19.9031 31.3721H19.9092H19.9319V31.371L21.1164 31.3275C21.1164 31.3275 21.1689 30.8318 21.108 30.652Z" fill="#A6540A"/>
<path d="M21.7681 27.1832C21.5918 27.1354 21.2275 27.2799 21.0451 27.2902C20.7887 27.3047 20.0787 27.1423 19.949 27.1119V27.1072L19.9396 27.1097L19.9286 27.1072V27.1125C19.8001 27.146 19.0939 27.3257 18.8374 27.3173C18.6547 27.3113 18.2869 27.1757 18.1119 27.2278C17.9173 27.2856 17.6863 27.6649 17.708 27.8648C17.7516 28.2691 18.2617 28.7376 18.6597 28.8401C18.9038 28.9031 19.8045 28.9286 19.9511 28.9326H19.9572H19.9716V28.9315C20.1183 28.9241 21.0178 28.8768 21.2605 28.808C21.6558 28.6958 22.154 28.2152 22.1877 27.8098C22.2043 27.6098 21.9641 27.2363 21.7681 27.1832Z" fill="#AB6065"/>
<path d="M19.9741 28.3169C20.7141 28.3079 21.3116 28.1089 21.3087 27.8723C21.3058 27.6357 20.7035 27.4512 19.9635 27.4601C19.2235 27.4691 18.6259 27.6681 18.6288 27.9047C18.6317 28.1413 19.234 28.3258 19.9741 28.3169Z" fill="#292825"/>
<path d="M19.0155 26.6949C19.1512 25.4646 18.2626 25.6436 18.111 25.682C17.7543 25.7723 16.5397 26.2944 15.5475 26.4731C14.6989 26.6257 14.2384 26.0817 13.9424 25.3197C13.7096 24.7204 14.0386 24.1488 13.9686 24.1389C13.8338 24.1198 13.3728 24.673 13.4244 25.0757C13.5462 26.0206 14.1161 26.9252 14.6527 27.0836C15.6969 27.3918 19.0155 26.6949 19.0155 26.6949Z" fill="#A6540A"/>
<path d="M20.828 26.6926C20.6924 25.4623 21.5809 25.6412 21.7325 25.6796C22.0892 25.7699 23.3039 26.2919 24.296 26.4708C25.1446 26.6234 25.6044 26.0792 25.901 25.3174C26.1339 24.7181 25.8049 24.1464 25.875 24.1365C26.0097 24.1174 26.4708 24.6706 26.419 25.0732C26.2974 26.0181 25.7275 26.9229 25.1909 27.0812C24.1466 27.3893 20.828 26.6926 20.828 26.6926Z" fill="#A6540A"/>
<g opacity="0.4">
<path opacity="0.4" d="M18.9478 19.7595V23.8001C18.9478 23.8001 19.0763 24.6218 20.7209 24.2383C20.7209 24.2383 21.5078 23.9193 21.7866 23.9096C21.9123 23.9052 22.1973 24.0055 22.1973 24.1973C22.1973 24.3891 21.9526 24.7288 21.7866 24.8136C21.6348 24.8911 21.1081 24.9095 21.1081 24.9095C21.1081 24.9095 20.9696 25.3567 19.9867 25.3865C19.0037 25.4163 18.9479 24.978 18.9479 24.978C18.9479 24.978 18.2672 24.8487 18.0617 24.8351C17.8507 24.8211 17.5788 24.4737 17.5955 24.2521C17.6103 24.0557 17.7847 23.8411 17.8124 23.5673C17.8401 23.2935 18.429 19.2392 18.429 19.2392C18.429 19.2392 18.5341 19.063 18.6572 19.089C18.9204 19.1431 18.9478 19.7595 18.9478 19.7595Z" fill="#292825"/>
</g>
<g opacity="0.4">
<path opacity="0.4" d="M20.8441 19.7636V23.804C20.8441 23.804 20.7156 24.6258 19.071 24.2423C19.071 24.2423 18.2842 23.9233 18.0052 23.9135C17.8795 23.9092 17.5947 24.0094 17.5947 24.2012C17.5947 24.393 17.7972 24.7327 17.9632 24.8175C18.115 24.895 18.6838 24.9134 18.6838 24.9134C18.6838 24.9134 18.8223 25.3607 19.8053 25.3904C20.7884 25.4201 20.8441 24.9819 20.8441 24.9819C20.8441 24.9819 21.527 24.8389 21.7302 24.8057C21.9996 24.7617 22.1574 24.4502 22.1964 24.256C22.2354 24.0618 22.0072 23.8451 21.9795 23.5712C21.9518 23.2972 21.3629 19.2431 21.3629 19.2431C21.3629 19.2431 21.2578 19.067 21.1347 19.0929C20.8715 19.1474 20.8441 19.7636 20.8441 19.7636Z" fill="#292825"/>
</g>
<path d="M20.8316 25.1617C20.8316 25.1617 21.2843 25.1733 21.3539 25.047C21.4235 24.9207 21.4334 24.5993 21.4334 24.5993C21.4334 24.5993 21.3769 24.4897 21.261 24.4845C21.0715 24.476 20.7271 24.8155 20.7271 24.8155C20.7271 24.8155 20.646 25.1506 20.8316 25.1622V25.1617Z" fill="#292825"/>
<path d="M19.1121 25.1834C19.1121 25.1834 18.6596 25.195 18.5899 25.0687C18.5203 24.9424 18.5103 24.621 18.5103 24.621C18.5103 24.621 18.5668 24.5113 18.6828 24.5063C18.8723 24.4977 19.2166 24.8373 19.2166 24.8373C19.2166 24.8373 19.2983 25.1723 19.1121 25.1839V25.1834Z" fill="#292825"/>
<path d="M25.7875 24.0885C26.8793 24.0885 27.7645 23.2133 27.7645 22.1337C27.7645 21.0541 26.8793 20.179 25.7875 20.179C24.6957 20.179 23.8105 21.0541 23.8105 22.1337C23.8105 23.2133 24.6957 24.0885 25.7875 24.0885Z" fill="#AC6E6E"/>
<path d="M14.0921 24.0885C15.1839 24.0885 16.0689 23.2133 16.0689 22.1337C16.0689 21.0541 15.1839 20.179 14.0921 20.179C13.0003 20.179 12.1152 21.0541 12.1152 22.1337C12.1152 23.2133 13.0003 24.0885 14.0921 24.0885Z" fill="#AC6E6E"/>
<g opacity="0.4">
<path opacity="0.4" d="M28.0338 11.6003C28.1601 11.6696 28.4485 12.0098 28.5244 12.2262C28.579 12.3808 28.4992 12.9964 28.4992 12.9964C28.4123 13.34 28.4598 13.5422 28.4598 13.5422C28.4598 13.5422 28.8419 22.1728 28.5223 22.4411C28.3539 22.5827 28.2233 22.2769 28.2233 22.2769C28.2233 22.2769 28.1181 22.054 28.0545 21.4688C27.9908 20.8836 27.4074 20.5099 27.4074 20.5099C27.4074 20.5099 26.7954 20.4262 26.4845 20.5569C26.1737 20.6876 25.1499 20.5934 25.1499 20.5934C25.1499 20.5934 24.9412 20.4722 24.4042 20.397C23.8882 20.3244 23.5742 20.1602 23.5742 20.1602C22.8426 19.6726 23.1381 19.6029 23.1381 19.6029C23.1381 19.6029 23.484 19.8403 23.6171 19.8816C24.3601 20.1127 25.1952 20.0022 26.726 20.0905C28.1152 20.1707 27.6405 18.6765 27.6405 18.6765C27.6405 18.6765 27.4162 16.9539 27.4294 16.552C27.4462 16.0437 27.8233 11.8713 27.8233 11.8713C27.8233 11.8713 27.8663 11.5086 28.0338 11.6003Z" fill="#292825"/>
<path opacity="0.4" d="M23.4674 15.435L21.7652 16.4101C21.7652 16.4101 21.2728 16.2569 21.7652 15.9225C21.7652 15.9225 22.5679 14.9357 23.2846 14.8916C24.3608 14.8255 25.1654 15.1289 26.1756 15.9225C26.1756 15.9225 26.6468 16.3962 26.1405 16.1594C25.6342 15.9225 24.2694 15.421 24.2694 15.421C24.2694 15.421 23.8543 15.2533 23.4674 15.435Z" fill="#292825"/>
<path opacity="0.4" d="M18.9176 28.5736C18.9176 28.5736 18.819 29.27 21.0554 28.8799C21.0554 28.8799 21.6011 28.8239 21.8543 28.5449C22.1076 28.2658 21.9557 28.7371 21.9557 28.7371C21.9557 28.7371 21.874 29.0754 20.383 29.2843C18.892 29.4932 18.8193 29.283 18.4732 29.1341C18.1336 28.9875 17.9755 28.7092 17.7905 28.0787C17.7094 27.8022 17.669 27.1091 18.2672 27.161C18.9494 27.2201 19.6628 27.501 19.6628 27.501C19.6628 27.501 19.9581 27.7239 19.4377 27.9329C18.9172 28.1419 18.9176 28.5736 18.9176 28.5736Z" fill="#292825"/>
<path opacity="0.4" d="M12.3829 10.9851C12.0908 11.1902 11.7235 11.4834 11.4575 11.7785C11.8341 11.3449 12.3562 10.9983 12.3562 10.9983C12.3644 10.9926 12.3734 10.9882 12.3829 10.9851Z" fill="#C6B6A8"/>
<path opacity="0.4" d="M26.1515 28.0665C26.1367 28.1571 26.0357 28.3132 25.8737 28.5129C25.5419 28.922 24.9543 29.5147 24.3269 30.1046C23.5179 30.8649 22.6427 31.6205 22.1643 31.9721C22.0349 32.0672 21.8809 32.1692 21.7136 32.2707C21.1336 32.6224 20.3946 32.9668 19.9693 32.9939C19.9312 32.9964 19.8925 32.9971 19.8532 32.9961C19.8304 32.9955 19.8074 32.9944 19.7842 32.9928L19.7492 32.99H19.7457C19.6371 32.979 19.5295 32.9597 19.4239 32.9322L19.4097 32.9285C19.2376 32.8824 19.0693 32.8238 18.906 32.7532L18.9047 32.7526C18.3925 32.5348 17.9187 32.2295 17.6814 32.0929C17.5545 32.0197 17.3359 31.8566 17.0733 31.6458L17.0477 31.6253L17.021 31.6038L16.9633 31.5576L16.9617 31.5562C16.292 31.0108 15.3988 30.2171 14.9782 29.7972C14.4696 29.2889 13.7718 28.5688 13.2344 27.8477C13.2379 27.85 13.2413 27.852 13.2447 27.854L13.2493 27.8566C13.2327 27.835 13.2162 27.8133 13.1998 27.7915C12.8595 27.3391 12.3717 26.4445 12.0473 25.7653C11.9829 25.6158 11.95 25.5285 11.95 25.5285C11.9454 25.531 11.939 25.5266 11.9312 25.5161C11.9066 25.4833 11.867 25.3904 11.8183 25.2557C11.8183 25.2552 11.8183 25.2547 11.8183 25.2542C11.6873 24.8927 11.4895 24.232 11.3352 23.6266C11.3056 23.5111 11.2777 23.3974 11.2521 23.2883C11.182 22.991 11.1301 22.727 11.1109 22.5463C11.0963 22.4102 11.0838 22.2575 11.0731 22.0911C11.0695 22.0358 11.0662 21.979 11.0631 21.9206C11.0631 21.9198 11.0631 21.919 11.0631 21.9182C11.0291 21.2836 11.0185 20.4772 11.0222 19.6136V19.5559C11.023 19.3754 11.0245 19.1926 11.0266 19.0085C11.0437 17.4936 11.0967 15.8889 11.1398 14.7727C11.1398 14.7713 11.1398 14.7701 11.1398 14.7687C11.1777 13.899 11.209 13.3255 11.209 13.3255C11.209 13.3255 11.0746 13.2226 11.0674 12.8346C11.0722 12.7602 11.0813 12.6748 11.0791 12.5804C11.086 12.5126 11.096 12.439 11.1099 12.3592C11.1119 12.3476 11.1142 12.336 11.1171 12.3252C11.1779 12.1412 11.3047 11.9543 11.4549 11.7812L11.4574 11.7785C11.7234 11.4834 12.0906 11.1901 12.3827 10.9851C12.4779 10.9549 12.4888 11.171 12.4888 11.171C12.4888 11.171 12.6013 14.8913 12.5589 15.713C12.5511 15.864 12.5622 15.986 12.5856 16.0843C12.5925 16.1149 12.6013 16.145 12.612 16.1744C12.7378 16.5169 13.0326 16.4927 13.0326 16.4927C13.0326 16.4927 13.2126 16.384 14.0848 15.7293C14.9569 15.0745 16.353 15.0306 16.7372 15.1136C17.0607 15.1829 18.0997 16.0431 18.0997 16.0431C18.0997 16.0431 18.2221 16.3023 18.0529 16.4137C17.8838 16.5251 16.2023 15.6708 16.2023 15.6708C14.89 15.3855 14.285 16.0358 13.8377 16.2457C13.0942 16.5957 12.6996 17.259 12.6996 17.259C12.6996 17.259 12.6593 17.3255 12.6438 17.7293C12.6428 17.7505 12.6421 17.7723 12.6416 17.7953C12.6364 17.9692 12.6356 18.1981 12.6433 18.4987C12.6495 18.7393 12.7128 18.9672 12.8079 19.1766C12.814 19.1898 12.8196 19.2031 12.8265 19.2163C13.1745 19.9428 13.8954 20.4351 13.8954 20.4351C13.8954 20.4351 15.5455 20.5569 16.0478 20.3658C16.2181 20.3009 16.5969 19.9061 16.709 20.0594C16.8212 20.2127 16.0235 20.7295 16.0235 20.7295C14.3107 20.827 14.1627 21.7167 14.1627 21.7167C14.1627 21.7167 14.0956 24.4981 14.3561 25.3772C14.4469 25.6831 14.6065 26.0328 14.8064 26.4055C14.9372 26.6493 15.0853 26.9023 15.2426 27.16C15.7942 28.0612 16.4593 29.0086 16.8918 29.7414C17.5847 30.9151 19.1404 31.941 20.1264 32.1933C20.508 32.2909 22.1258 31.5231 22.3226 31.3713C22.6448 31.122 25.6426 28.2508 25.6426 28.2508C25.6426 28.2508 25.9186 27.9259 26.0675 27.8821C26.12 27.8666 26.1567 27.8861 26.16 27.967C26.1606 28.0004 26.1577 28.0337 26.1515 28.0665Z" fill="#292825"/>
</g>
</svg>
